<?xml version="1.0" standalone="no"?>
<!DOCTYPE svg PUBLIC "-//W3C//DTD SVG 1.1//EN" "http://www.w3.org/Graphics/SVG/1.1/DTD/svg11.dtd" >
<svg xmlns="http://www.w3.org/2000/svg" xmlns:xlink="http://www.w3.org/1999/xlink" version="1.1">
<metadata>
Created by FontForge 20200427 at Mon Dec 22 23:51:48 2014
 By www
Copyright (c) 2010 by Harald Geisler. All rights reserved.
</metadata>
<defs>
<font id="CiseauxMatisseW90-Cut-Out" horiz-adv-x="749" >
  <font-face 
    font-family="CiseauxMatisseW90-Cut-Out"
    font-weight="400"
    font-stretch="normal"
    units-per-em="1000"
    panose-1="2 0 5 6 0 0 0 2 0 4"
    ascent="800"
    descent="-200"
    x-height="576"
    cap-height="638"
    bbox="-4.66667 -162 762 840"
    underline-thickness="50"
    underline-position="-175"
    unicode-range="U+0020-2122"
  />
<missing-glyph horiz-adv-x="499" 
 />
    <glyph glyph-name=".notdef" horiz-adv-x="499" 
 />
    <glyph glyph-name="glyph1" horiz-adv-x="0" 
 />
    <glyph glyph-name="glyph1" horiz-adv-x="0" 
 />
    <glyph glyph-name="glyph2" horiz-adv-x="499" 
 />
    <glyph glyph-name="space" unicode=" " horiz-adv-x="499" 
 />
    <glyph glyph-name="exclam" unicode="!" horiz-adv-x="406" 
d="M215 750q0 6 2 9t9 9l74 -24q5 -1 17 -3t24.5 -5t22 -7t9.5 -10q0 -1 -5 -21t-14 -52t-20.5 -73t-23.5 -83.5t-24.5 -83.5t-23.5 -73q-3 -9 -10 -26t-15.5 -34t-17.5 -30t-15 -13l-13 3t-28.5 7.5t-28.5 10.5t-13 12q0 4 7 41.5t17.5 91.5t22.5 116t22.5 115t17.5 88z
M4 9q7 10 19.5 26t26 31.5t27 26.5t22.5 11q10 0 25 -14t28.5 -32.5t23 -37t9.5 -27.5q0 -5 -8 -12.5t-19 -15t-22 -12.5t-17 -5q-17 0 -30 5.5t-25.5 14t-26.5 19.5t-33 22z" />
    <glyph glyph-name="quotedbl" unicode="&#x22;" horiz-adv-x="247" 
d="M148 342v38.5t0.5 62.5t0.5 62.5v38.5q18 -1 38 0t40 3q0 -10 -1 -39.5t-2 -63t-2 -63t0 -38.5q-19 2 -37 0.5t-37 -1.5zM36 348q1 9 5 38.5t7.5 62.5t7 61.5t4.5 37.5q18 -2 38 -3t40 -1q-1 -10 -5 -39.5t-9 -62.5t-9.5 -62t-4.5 -38q-19 2 -36.5 3t-37.5 3z" />
    <glyph glyph-name="numbersign" unicode="#" 
d="M655 463q7 -7 17 -14.5t10 -10.5q0 -7 3.5 -14t8.5 -15q3 -5 4 -11t3 -13l-8 -7q6 -5 7.5 -6t1.5 -2q0 -4 -3 -10.5t-3 -10.5t-2 -4t-7 -6q-2 -4 -3.5 -9.5t-3.5 -9.5q-61 -77 -138 -146t-155 -141q-33 25 -69.5 56t-72.5 64.5t-69 68.5t-58 68q-5 6 -10.5 14.5
t-10.5 16.5t-8 13.5t-3 7.5q0 4 -1 9t-1 9q0 2 1 7.5t2 12.5t2 12.5t1 7.5q0 9 7.5 20t17.5 21.5t20 18.5t15 13q1 1 8.5 5t17 8t20 7t16.5 3q4 0 9 1t9 1q16 0 36.5 -5.5t36.5 -19.5q2 -2 5 -2t4 -1q21 -20 40 -43t46 -52q12 24 30 43.5t38 34.5t40 23.5t36 10.5
q5 0 9.5 2.5t8.5 2.5t16 1t16 1q12 0 25.5 -7t33.5 -24h4zM655 463q7 -7 17 -14.5t10 -10.5q0 -7 3.5 -14t8.5 -15q3 -5 4 -11t3 -13l-8 -7q6 -5 7.5 -6t1.5 -2q0 -4 -3 -10.5t-3 -10.5t-2 -4t-7 -6q-2 -4 -3.5 -9.5t-3.5 -9.5q-61 -77 -138 -146t-155 -141q-33 25 -69.5 56
t-72.5 64.5t-69 68.5t-58 68q-5 6 -10.5 14.5t-10.5 16.5t-8 13.5t-3 7.5q0 4 -1 9t-1 9q0 2 1 7.5t2 12.5t2 12.5t1 7.5q0 9 7.5 20t17.5 21.5t20 18.5t15 13q1 1 8.5 5t17 8t20 7t16.5 3q4 0 9 1t9 1q16 0 36.5 -5.5t36.5 -19.5q2 -2 5 -2t4 -1q21 -20 40 -43t46 -52
q12 24 30 43.5t38 34.5t40 23.5t36 10.5q5 0 9.5 2.5t8.5 2.5t16 1t16 1q12 0 25.5 -7t33.5 -24h4z" />
    <glyph glyph-name="dollar" unicode="$" horiz-adv-x="283" 
d="M256 139q6 -12 10 -24t2 -29q-2 -20 -12 -37t-24 -26q-15 -11 -34.5 -15t-41.5 -7q0 -11 1.5 -24.5t2.5 -26.5q-10 -2 -20.5 -1.5t-18.5 -3.5q-1 14 -2 30t-2 31q-8 3 -16.5 3t-15.5 3q-5 2 -9.5 5.5t-9.5 7.5q-13 11 -23.5 24t-16.5 30q8 6 20 8.5t26 4.5q5 -7 7 -14.5
t7 -13.5q5 -7 13 -9.5t18 -5.5q1 20 0 41.5t-3 43.5v6.5t-1 5.5t-5 3.5t-8 3.5q-42 21 -60 66q-2 3 -3.5 7t-2.5 8q-2 13 0 24q3 23 16 41.5t30 26.5q8 3 16 5l16 4q2 11 0 22t-2 21q11 0 21.5 1t21.5 0q-1 -5 -0.5 -10t-0.5 -11q0 -3 -0.5 -9.5t1.5 -8.5q3 -4 13 -4.5
t15 -1.5q16 -4 25 -8q7 -5 13.5 -11t11.5 -11q6 -6 11 -11.5t10 -13.5q-5 -4 -10.5 -6t-10.5 -4q-3 -2 -5.5 -2.5t-6.5 -2.5q-2 -1 -5.5 -2.5t-5.5 -1.5q-3 1 -6.5 5t-5.5 6q-7 8 -15.5 15.5t-20.5 9.5q-2 -11 -1.5 -24.5t0.5 -27.5t-0.5 -26.5t3.5 -23.5q38 3 59.5 -13
t34.5 -42z" />
    <glyph glyph-name="percent" unicode="%" 
d="M655 463q7 -7 17 -14.5t10 -10.5q0 -7 3.5 -14t8.5 -15q3 -5 4 -11t3 -13l-8 -7q6 -5 7.5 -6t1.5 -2q0 -4 -3 -10.5t-3 -10.5t-2 -4t-7 -6q-2 -4 -3.5 -9.5t-3.5 -9.5q-61 -77 -138 -146t-155 -141q-33 25 -69.5 56t-72.5 64.5t-69 68.5t-58 68q-5 6 -10.5 14.5
t-10.5 16.5t-8 13.5t-3 7.5q0 4 -1 9t-1 9q0 2 1 7.5t2 12.5t2 12.5t1 7.5q0 9 7.5 20t17.5 21.5t20 18.5t15 13q1 1 8.5 5t17 8t20 7t16.5 3q4 0 9 1t9 1q16 0 36.5 -5.5t36.5 -19.5q2 -2 5 -2t4 -1q21 -20 40 -43t46 -52q12 24 30 43.5t38 34.5t40 23.5t36 10.5
q5 0 9.5 2.5t8.5 2.5t16 1t16 1q12 0 25.5 -7t33.5 -24h4zM655 463q7 -7 17 -14.5t10 -10.5q0 -7 3.5 -14t8.5 -15q3 -5 4 -11t3 -13l-8 -7q6 -5 7.5 -6t1.5 -2q0 -4 -3 -10.5t-3 -10.5t-2 -4t-7 -6q-2 -4 -3.5 -9.5t-3.5 -9.5q-61 -77 -138 -146t-155 -141q-33 25 -69.5 56
t-72.5 64.5t-69 68.5t-58 68q-5 6 -10.5 14.5t-10.5 16.5t-8 13.5t-3 7.5q0 4 -1 9t-1 9q0 2 1 7.5t2 12.5t2 12.5t1 7.5q0 9 7.5 20t17.5 21.5t20 18.5t15 13q1 1 8.5 5t17 8t20 7t16.5 3q4 0 9 1t9 1q16 0 36.5 -5.5t36.5 -19.5q2 -2 5 -2t4 -1q21 -20 40 -43t46 -52
q12 24 30 43.5t38 34.5t40 23.5t36 10.5q5 0 9.5 2.5t8.5 2.5t16 1t16 1q12 0 25.5 -7t33.5 -24h4z" />
    <glyph glyph-name="ampersand" unicode="&#x26;" 
d="M655 463q7 -7 17 -14.5t10 -10.5q0 -7 3.5 -14t8.5 -15q3 -5 4 -11t3 -13l-8 -7q6 -5 7.5 -6t1.5 -2q0 -4 -3 -10.5t-3 -10.5t-2 -4t-7 -6q-2 -4 -3.5 -9.5t-3.5 -9.5q-61 -77 -138 -146t-155 -141q-33 25 -69.5 56t-72.5 64.5t-69 68.5t-58 68q-5 6 -10.5 14.5
t-10.5 16.5t-8 13.5t-3 7.5q0 4 -1 9t-1 9q0 2 1 7.5t2 12.5t2 12.5t1 7.5q0 9 7.5 20t17.5 21.5t20 18.5t15 13q1 1 8.5 5t17 8t20 7t16.5 3q4 0 9 1t9 1q16 0 36.5 -5.5t36.5 -19.5q2 -2 5 -2t4 -1q21 -20 40 -43t46 -52q12 24 30 43.5t38 34.5t40 23.5t36 10.5
q5 0 9.5 2.5t8.5 2.5t16 1t16 1q12 0 25.5 -7t33.5 -24h4zM655 463q7 -7 17 -14.5t10 -10.5q0 -7 3.5 -14t8.5 -15q3 -5 4 -11t3 -13l-8 -7q6 -5 7.5 -6t1.5 -2q0 -4 -3 -10.5t-3 -10.5t-2 -4t-7 -6q-2 -4 -3.5 -9.5t-3.5 -9.5q-61 -77 -138 -146t-155 -141q-33 25 -69.5 56
t-72.5 64.5t-69 68.5t-58 68q-5 6 -10.5 14.5t-10.5 16.5t-8 13.5t-3 7.5q0 4 -1 9t-1 9q0 2 1 7.5t2 12.5t2 12.5t1 7.5q0 9 7.5 20t17.5 21.5t20 18.5t15 13q1 1 8.5 5t17 8t20 7t16.5 3q4 0 9 1t9 1q16 0 36.5 -5.5t36.5 -19.5q2 -2 5 -2t4 -1q21 -20 40 -43t46 -52
q12 24 30 43.5t38 34.5t40 23.5t36 10.5q5 0 9.5 2.5t8.5 2.5t16 1t16 1q12 0 25.5 -7t33.5 -24h4z" />
    <glyph glyph-name="quotesingle" unicode="'" horiz-adv-x="229" 
d="M30 382q1 9 2.5 38t3.5 62.5t4 62.5t2 38q38 -2 79 0q0 -10 -3 -39.5t-6 -63t-5.5 -62.5t-2.5 -38q-19 2 -37 1.5t-37 0.5z" />
    <glyph glyph-name="asterisk" unicode="*" horiz-adv-x="543" 
d="M314 338q0 -1 -1 -1t-1 -1q-11 -9 -25 -18t-26 -19q-3 -1 -11 -1q8 -23 19.5 -44.5t21.5 -44.5q-5 2 -9.5 4.5t-9.5 5.5q-14 8 -28 15.5t-28 15.5q-5 -4 -8.5 -8t-8.5 -9l-22 -24t-21 -25q-1 0 -2.5 -1.5t-2.5 -1.5q8 20 14.5 39t13.5 39q-19 -2 -35.5 -8t-36.5 -8
q18 18 36 35.5t35 36.5q-5 14 -8 29t-8 30q9 -9 18 -18.5t19 -18.5q8 14 14 29t10 33q5 -17 6.5 -36.5t6.5 -37.5q20 3 39 6.5t39 6.5z" />
    <glyph glyph-name="plus" unicode="+" horiz-adv-x="303" 
d="M257 266q-19 -1 -37.5 1t-35.5 0q-2 -23 -1.5 -42.5t-2.5 -41.5q-11 -2 -22 -3t-23 -2q-1 23 -2.5 44.5t-3.5 44.5q-18 -1 -36.5 -3.5t-36.5 -4.5l-4 40l-4 40q20 1 41 1t39 2q2 11 -1 20.5t-6 19.5q-2 7 -3.5 13.5t-3.5 13.5q14 3 31.5 3.5t34.5 2.5q2 -20 2 -40.5
t1 -41.5q17 1 34 3l34 4q2 -19 3.5 -37t2.5 -37z" />
    <glyph glyph-name="comma" unicode="," horiz-adv-x="154" 
d="M129 53q5 -14 3 -32.5t-6 -31.5q-11 -6 -24 -12t-27 -13q-5 -2 -9 -4.5t-9 -3.5q-9 -2 -19 -1.5t-21 0.5q-1 2 1.5 5t4.5 6t8 11q4 5 8 10.5t6 11.5q5 12 3 27t-1 30q20 -2 42.5 1t39.5 -4z" />
    <glyph glyph-name="hyphen" unicode="-" horiz-adv-x="476" 
d="M429 206q-6 0 -35 -0.5t-69 -0.5t-85.5 -0.5t-85.5 -1t-68.5 -1t-34.5 -0.5q0 10 -2 28t-4.5 37.5t-5 37.5t-3.5 28h36t69.5 -0.5t86 -1t85.5 -1t68.5 -0.5t34.5 1q0 -9 2 -26.5t4 -36t4 -36t3 -26.5z" />
    <glyph glyph-name="period" unicode="." horiz-adv-x="154" 
d="M131 53q5 -8 6.5 -14t-0.5 -17q0 -3 -0.5 -7t-2.5 -6q-2 -4 -6 -7t-9 -7q-3 -3 -8 -7t-9 -6q-3 -2 -6.5 -2t-7.5 -1t-7.5 -2t-6.5 -1q-1 0 -7 2h-7q-4 1 -7.5 3t-5.5 3q-8 4 -14.5 12t-10.5 16q-2 3 -3.5 6.5t-1.5 5.5q-1 5 2 10t5 9q6 15 15 23q8 7 22.5 14t26.5 9
q5 0 10 -3l10 -6q8 -7 13 -11.5t10 -15.5z" />
    <glyph glyph-name="slash" unicode="/" 
d="M655 463q7 -7 17 -14.5t10 -10.5q0 -7 3.5 -14t8.5 -15q3 -5 4 -11t3 -13l-8 -7q6 -5 7.5 -6t1.5 -2q0 -4 -3 -10.5t-3 -10.5t-2 -4t-7 -6q-2 -4 -3.5 -9.5t-3.5 -9.5q-61 -77 -138 -146t-155 -141q-33 25 -69.5 56t-72.5 64.5t-69 68.5t-58 68q-5 6 -10.5 14.5
t-10.5 16.5t-8 13.5t-3 7.5q0 4 -1 9t-1 9q0 2 1 7.5t2 12.5t2 12.5t1 7.5q0 9 7.5 20t17.5 21.5t20 18.5t15 13q1 1 8.5 5t17 8t20 7t16.5 3q4 0 9 1t9 1q16 0 36.5 -5.5t36.5 -19.5q2 -2 5 -2t4 -1q21 -20 40 -43t46 -52q12 24 30 43.5t38 34.5t40 23.5t36 10.5
q5 0 9.5 2.5t8.5 2.5t16 1t16 1q12 0 25.5 -7t33.5 -24h4zM655 463q7 -7 17 -14.5t10 -10.5q0 -7 3.5 -14t8.5 -15q3 -5 4 -11t3 -13l-8 -7q6 -5 7.5 -6t1.5 -2q0 -4 -3 -10.5t-3 -10.5t-2 -4t-7 -6q-2 -4 -3.5 -9.5t-3.5 -9.5q-61 -77 -138 -146t-155 -141q-33 25 -69.5 56
t-72.5 64.5t-69 68.5t-58 68q-5 6 -10.5 14.5t-10.5 16.5t-8 13.5t-3 7.5q0 4 -1 9t-1 9q0 2 1 7.5t2 12.5t2 12.5t1 7.5q0 9 7.5 20t17.5 21.5t20 18.5t15 13q1 1 8.5 5t17 8t20 7t16.5 3q4 0 9 1t9 1q16 0 36.5 -5.5t36.5 -19.5q2 -2 5 -2t4 -1q21 -20 40 -43t46 -52
q12 24 30 43.5t38 34.5t40 23.5t36 10.5q5 0 9.5 2.5t8.5 2.5t16 1t16 1q12 0 25.5 -7t33.5 -24h4z" />
    <glyph glyph-name="zero" unicode="0" horiz-adv-x="471" 
d="M296 -4q-15 -8 -46.5 -8t-66.5 13t-66 41t-44 77q-6 23 -13 45.5t-7 26.5q0 25 6.5 66t23 80t46 67.5t74.5 28.5q42 0 81 -7.5t69 -27t48 -52.5t18 -85q0 -9 -4.5 -29.5t-12.5 -47t-19 -56t-25 -56t-29.5 -47t-32.5 -29.5z" />
    <glyph glyph-name="one" unicode="1" horiz-adv-x="373" 
d="M227 501q-1 -75 -1.5 -156t1.5 -159v-26q1 -14 1 -26.5t1 -26.5v-13q0 -8 -2 -12q32 -1 61 2t58 5q0 -22 1.5 -45.5t0.5 -44.5q-31 -2 -63 -1t-64 0h-81t-81 1q1 15 1.5 31t1.5 32v10.5t2 10.5q21 -2 42.5 -3.5t43.5 -1.5q3 3 3 9q1 8 1 16v16v3v16v2v5q0 3 -0.5 6.5
t-0.5 6.5q1 18 0.5 38t-0.5 41q0 5 -0.5 10.5t-0.5 10.5q-1 17 -1.5 32.5t-0.5 32.5q-2 21 -2.5 42t0.5 42q-2 1 -5 0t-5 -1q-8 -2 -15 -3.5t-15 -3.5q-9 -3 -18 -6.5t-17 -7.5q-3 4 -5 13q0 2 -0.5 3t-0.5 2q0 2 0.5 2t1.5 2q5 4 9 9q6 5 10 9l9 9q11 11 21 20.5t21 20.5
l12 12q4 4 7 7.5t6 4.5h7q13 0 28 1t28 1z" />
    <glyph glyph-name="two" unicode="2" horiz-adv-x="351" 
d="M311 87q2 -23 3.5 -46t0.5 -46q-17 4 -34.5 4t-35.5 1h-227q-3 15 -1.5 30.5t6.5 26.5q6 14 16 25t20 21q10 11 20.5 20.5t22.5 17.5q22 14 42.5 28.5t41.5 29.5q3 2 6 4.5t5 4.5q4 5 9 15.5t6 17.5q0 5 -1 9t-3 8t-3.5 8t-3.5 6q-3 4 -11.5 7.5t-14.5 4.5
q-10 2 -19.5 -1t-14.5 -7q-8 -5 -16 -14.5t-15 -17.5q-5 -6 -10 -13t-13 -12l-4 -4t-4 -2q-4 -1 -7.5 0t-7.5 2q-6 0 -14 2q4 12 12 23q7 11 13 23.5t13 24.5q3 5 6 11t8 11q12 12 34 17q11 2 23 4.5t23 2.5q14 1 24.5 -3t18.5 -10q3 -3 6.5 -8t6.5 -10q9 -14 18.5 -32
t4.5 -41q-3 -16 -11.5 -30t-19.5 -25q-21 -21 -46.5 -39t-48.5 -39l-16 -16t-16 -17q-2 -3 -5 -6t-2 -8q7 0 13.5 1t13.5 2q20 3 41.5 6t41.5 6q14 2 27 5.5t26 6.5t25.5 6.5t26.5 3.5z" />
    <glyph glyph-name="three" unicode="3" horiz-adv-x="354" 
d="M319 410q3 -25 2.5 -53t-0.5 -54q-39 -15 -83.5 -24.5t-83.5 -25.5q3 -5 8 -7.5t10 -5.5l28 -16l28 -16q9 -5 19 -10.5t19 -10.5q5 -3 8.5 -6.5t8.5 -6.5t9 -6l8 -6q5 -5 7.5 -12.5l5.5 -16.5q2 -5 3 -9.5t1 -8.5q1 -5 0 -10l-2 -10q-2 -14 -5 -24t-8 -21q-2 -6 -5 -12.5
t-7 -11.5t-12 -9.5t-15 -9.5q-3 -2 -6.5 -4.5t-7.5 -4.5q-3 -2 -6.5 -4t-7.5 -4q-8 -3 -18.5 -5t-20.5 -4q-24 -4 -47.5 -6t-46.5 2q-23 -2 -48 -2t-48 1q3 6 8.5 11t10.5 10q5 4 8.5 7t8.5 7q2 1 3 2.5t3 0.5q2 5 6.5 7t7.5 7q2 0 2.5 -1.5t2.5 -0.5q2 3 3 3.5t-1 4.5
q7 9 16 16l18 14q8 -2 17.5 -0.5t20.5 1.5q10 0 21.5 1.5t22.5 3.5q5 1 9 2t9 2q5 2 9 2.5t8 2.5q7 4 13.5 12t7.5 18q1 6 -0.5 14.5t-4.5 14.5q-2 4 -7 7.5t-10 6.5q-31 20 -66.5 36t-67.5 36q-1 14 0 28t1 29q23 7 47 15t49 14q8 2 16 4.5t12 9.5q-2 2 -5.5 1.5t-5.5 -0.5
q-8 1 -16.5 2.5t-17.5 3.5q-25 4 -50.5 6.5t-51.5 6.5q-2 5 -2.5 11.5t-2.5 12.5q-1 6 -2.5 12t-1.5 13q0 2 0.5 3t0.5 3q-1 7 -3.5 12.5t-4.5 10.5q0 2 1 2q16 -1 30.5 -0.5t30.5 -0.5q14 -1 26.5 -2t25.5 -2q41 -2 80.5 -3t77.5 -6z" />
    <glyph glyph-name="four" unicode="4" horiz-adv-x="351" 
d="M34 161q8 20 15.5 40.5t12.5 41.5q22 85 45 174h42v-1l-18 -104l-18 -104q-2 -17 -5 -34.5t-5 -35.5q31 -1 60 -2.5t58 -1.5q2 23 3 47.5t3 47.5q6 0 13 0.5t15 0.5q7 0 14 0.5t12 -1.5q2 -27 -1 -55.5t-2 -57.5q13 1 24.5 2.5t25.5 1.5q2 -10 3.5 -20.5t1.5 -21.5
q-13 1 -25.5 2t-25.5 1q-1 -23 0 -47.5t0 -49.5q-24 0 -46 -0.5t-46 0.5q2 3 5 5.5t5 4.5q2 4 4.5 8.5t4.5 9.5q5 14 9 29.5t6 32.5q-6 2 -12.5 2t-13.5 1q-20 1 -41.5 1t-43.5 1q-28 2 -55.5 1t-53.5 1q8 19 15 39t15 41z" />
    <glyph glyph-name="five" unicode="5" horiz-adv-x="348" 
d="M327 430q4 -19 1.5 -41.5t-3.5 -43.5q-2 0 -5 0.5t-5 -0.5q-2 0 -3 -1t-3 -1q-5 -1 -11.5 0.5t-13.5 1.5q-18 2 -37 4.5t-37 3.5q-19 2 -39 1t-40 -3q-10 -1 -19.5 -2.5t-20.5 -1.5q1 -32 2 -67t4 -67q33 -7 66.5 -6t64.5 -7q13 -3 25.5 -9.5t23.5 -12.5q25 -13 33 -38
q3 -9 3.5 -19t1.5 -21q2 -23 -3 -41q-4 -22 -12 -40t-22 -30q-2 -2 -4 -3.5t-4 -2.5q-10 -4 -26 -6q-14 -2 -29 -2.5t-32 -0.5q-8 1 -15.5 0.5t-14.5 0.5q-4 1 -8 2.5t-8 3.5q-28 8 -55.5 17.5t-58.5 14.5q3 11 6 20.5t6 19.5t6 19.5t8 18.5q20 -5 41 -9.5t44 -10.5
q26 -6 56.5 -10.5t51.5 8.5l5.5 5.5t3.5 5.5q2 5 0.5 9.5t-1.5 9.5q-12 10 -32 12.5t-40 4.5q-13 1 -25.5 1t-24.5 2q-25 2 -46.5 8.5t-42.5 11.5q-5 13 -5 27.5t-2 29.5q-2 26 -4 50.5t-2 53.5q0 33 -3 66t-4 65h103q51 0 102.5 -1.5t102.5 0.5z" />
    <glyph glyph-name="six" unicode="6" horiz-adv-x="314" 
d="M290 143q4 -10 4.5 -21.5t0.5 -22.5t-2 -21t-5 -20q-6 -18 -16 -34t-23 -26q-11 -8 -26 -13.5t-32 -7.5q-6 -1 -12.5 -2t-11.5 1l-3 1.5l-3 1.5q-3 1 -6.5 0.5t-7.5 0.5q-22 2 -38 11.5t-28 22.5q-9 11 -18 23.5t-17 26.5q-3 5 -5.5 9t-4.5 9q-2 6 -4 16q-8 26 -13 55
t-9 59q-2 18 -0.5 35.5t4.5 35.5q5 35 12 66t18 59q3 6 7 11.5t9 10.5q19 21 40.5 37t47.5 31q3 2 6 3.5t6 3.5t5.5 4t5.5 4q4 2 8.5 2.5t9.5 1.5q14 4 30 6.5t31 4.5q3 -1 0.5 -1t-2.5 -1q5 -18 6.5 -39t5.5 -41q-15 -4 -30.5 -7t-30.5 -6.5t-28.5 -9t-23.5 -14.5
q-3 -1 -4 -3.5t-3 -3.5q-7 -7 -13 -14t-12 -15q-9 -20 -17 -42t-13 -46q-1 -11 -1 -23t-1 -23q0 -14 -1 -26.5t0 -26.5q10 4 18 7t17 6q8 4 16.5 7t19.5 4q10 2 20 1.5t19 -1.5q20 -2 37.5 -9t31.5 -17q4 -3 8.5 -8.5t7.5 -10.5q4 -5 7.5 -11t5.5 -11z" />
    <glyph glyph-name="seven" unicode="7" horiz-adv-x="317" 
d="M297 317q3 -14 -1 -27t-6 -25q-2 -4 -2 -8.5t-2 -7.5q-1 -3 -6 -6.5t-8 -5.5q-12 -8 -25.5 -14t-26.5 -13q-17 -9 -33 -20t-26 -27q-10 -17 -18 -35.5t-13 -38.5q-4 -15 -6.5 -33t-5.5 -34q-1 -5 -1 -9t-2 -8q0 -2 -0.5 -3t-0.5 -2q0 -2 0.5 -2.5t1.5 -2.5
q-18 -2 -37.5 -3.5t-38.5 -1.5q-2 26 5 48.5t14 43.5q3 12 5 22.5t7 20.5q5 9 11 17l12 16q5 8 11.5 15t14.5 15q7 7 13.5 14t14.5 13q15 13 33.5 21.5t36.5 19.5q-5 3 -11 2.5t-11 -0.5q-42 0 -84.5 -5.5t-83.5 -7.5q-3 20 -6 41t-5 43q0 1 1 1q72 -4 142.5 -4t136.5 -9z
" />
    <glyph glyph-name="eight" unicode="8" horiz-adv-x="320" 
d="M286 204q10 -17 13 -38.5t1 -44t-7.5 -43.5t-12.5 -36q-5 -5 -11.5 -9.5t-12.5 -9.5q-7 -5 -13 -9.5t-14 -8.5t-18 -6.5t-20 -4.5q-21 -6 -44.5 -5.5t-41.5 8.5q-9 4 -18 6.5t-17 7.5q-5 3 -10.5 7.5t-11.5 8.5q-6 5 -11.5 8.5t-9.5 8.5q-2 4 -4.5 10t-3.5 11
q-1 11 1.5 20t5.5 17q2 5 3 9t3 8t4 7l4 6q1 2 1 4.5t1 4.5q2 4 5 7.5t5 7.5q2 5 4.5 8.5t4.5 7.5q16 22 31.5 44t28.5 46q-8 11 -20 20t-21 21q-3 4 -5.5 8.5t-4.5 9.5q-6 10 -9.5 18.5t-5.5 22.5q-1 6 -2 12.5t-1 12.5q0 8 2 16l4 16q2 7 3.5 14.5t3.5 13.5
q6 12 15.5 19.5t20.5 13.5q8 -2 13.5 1t12.5 3q5 0 10 -1t10 -3q14 -3 29.5 -6.5t25.5 -9.5q5 -2 8.5 -6t7.5 -9t7.5 -9t5.5 -9q2 -4 2.5 -7.5t2.5 -7.5q2 -7 4.5 -14.5t2.5 -16.5q0 -8 -2.5 -15.5t-4.5 -14.5q-7 -20 -15.5 -39.5t-17.5 -37.5l39 -27q3 -2 6.5 -4t6.5 -5
q5 -3 8 -8.5t7 -10.5t8.5 -9.5t7.5 -9.5z" />
    <glyph glyph-name="nine" unicode="9" horiz-adv-x="301" 
d="M282 273q2 -13 0 -26l-4 -26l-4 -24t-4 -23q-5 -23 -10 -45.5t-15 -41.5q-5 -8 -11.5 -15.5t-14.5 -14.5q-18 -19 -38.5 -32.5t-43.5 -27.5q-5 -2 -9 -5t-8 -5q-5 -2 -9.5 -3t-9.5 -2q-14 -4 -29.5 -6t-30.5 -4q3 1 2 3.5t-2 7.5q-4 17 -5.5 36t-4.5 34q23 6 46 10.5
t43 12.5q16 7 25 15l1 1h1q2 2 2 3.5t3 2.5q7 7 12.5 14t11.5 15q18 40 30 87q1 11 1 23.5t1 23.5q0 14 1 26t0 26q-18 -5 -34.5 -13.5t-36.5 -10.5q-10 -1 -20 -0.5t-19 1.5q-16 1 -30 5.5t-25 11.5q-10 5 -16.5 11.5t-13.5 16.5q-4 5 -7.5 10.5t-5.5 10.5q-5 13 -5.5 29.5
t0.5 27.5q2 23 11.5 42.5t22.5 33.5q28 31 76 34q2 1 8 1.5t10 -1.5q2 0 3 -1t3 -2q3 -1 6 -0.5t6 0.5q19 -2 34 -9t26.5 -17.5t20.5 -23.5t17 -26q4 -7 8 -13.5t7 -13.5q2 -4 2.5 -8t2.5 -9q6 -20 10.5 -42.5t7.5 -46.5q1 -10 2.5 -19.5t1.5 -18.5z" />
    <glyph glyph-name="colon" unicode=":" horiz-adv-x="208" 
d="M147 77q5 -8 6.5 -14t-0.5 -17q0 -3 -0.5 -7t-2.5 -6q-2 -4 -6 -7t-9 -7q-3 -3 -8 -7t-9 -6q-3 -2 -6.5 -2t-7.5 -1t-7.5 -2t-6.5 -1q-1 0 -7 2h-7q-4 1 -7.5 3t-5.5 3q-8 4 -14.5 12t-10.5 16q-2 3 -3.5 6.5t-1.5 5.5q-1 5 2 10t5 9q6 15 15 23q8 7 22.5 14t26.5 9
q5 0 10 -3l10 -6q8 -7 13 -11.5t10 -15.5zM146 285q5 -8 6.5 -14t-0.5 -17q0 -3 -0.5 -7t-2.5 -6q-2 -4 -6 -7t-9 -7q-3 -3 -8 -7t-9 -6q-3 -2 -6.5 -2t-7.5 -1t-7.5 -2t-6.5 -1q-1 0 -7 2h-7q-4 1 -7.5 3t-5.5 3q-8 4 -14.5 12t-10.5 16q-2 3 -3.5 6.5t-1.5 5.5q-1 5 2 10
t5 9q6 15 15 23q8 7 22.5 14t26.5 9q5 0 10 -3l10 -6q8 -7 13 -11.5t10 -15.5z" />
    <glyph glyph-name="semicolon" unicode=";" horiz-adv-x="833" 
 />
    <glyph glyph-name="equal" unicode="=" horiz-adv-x="435" 
d="M288 222q-9 0 -38.5 -1t-63 -2t-62.5 -2t-38 -2q-1 20 -3 40t-5 40h40h63.5h62.5t38 1q1 -19 2.5 -37t3.5 -37zM299 344q-9 0 -38.5 -1t-63 -2t-62.5 -2t-38 -2q-1 20 -3 40t-5 40h40h63.5h62.5t38 1q1 -19 2.5 -37t3.5 -37z" />
    <glyph glyph-name="greater" unicode="&#x3e;" 
d="M655 463q7 -7 17 -14.5t10 -10.5q0 -7 3.5 -14t8.5 -15q3 -5 4 -11t3 -13l-8 -7q6 -5 7.5 -6t1.5 -2q0 -4 -3 -10.5t-3 -10.5t-2 -4t-7 -6q-2 -4 -3.5 -9.5t-3.5 -9.5q-61 -77 -138 -146t-155 -141q-33 25 -69.5 56t-72.5 64.5t-69 68.5t-58 68q-5 6 -10.5 14.5
t-10.5 16.5t-8 13.5t-3 7.5q0 4 -1 9t-1 9q0 2 1 7.5t2 12.5t2 12.5t1 7.5q0 9 7.5 20t17.5 21.5t20 18.5t15 13q1 1 8.5 5t17 8t20 7t16.5 3q4 0 9 1t9 1q16 0 36.5 -5.5t36.5 -19.5q2 -2 5 -2t4 -1q21 -20 40 -43t46 -52q12 24 30 43.5t38 34.5t40 23.5t36 10.5
q5 0 9.5 2.5t8.5 2.5t16 1t16 1q12 0 25.5 -7t33.5 -24h4zM655 463q7 -7 17 -14.5t10 -10.5q0 -7 3.5 -14t8.5 -15q3 -5 4 -11t3 -13l-8 -7q6 -5 7.5 -6t1.5 -2q0 -4 -3 -10.5t-3 -10.5t-2 -4t-7 -6q-2 -4 -3.5 -9.5t-3.5 -9.5q-61 -77 -138 -146t-155 -141q-33 25 -69.5 56
t-72.5 64.5t-69 68.5t-58 68q-5 6 -10.5 14.5t-10.5 16.5t-8 13.5t-3 7.5q0 4 -1 9t-1 9q0 2 1 7.5t2 12.5t2 12.5t1 7.5q0 9 7.5 20t17.5 21.5t20 18.5t15 13q1 1 8.5 5t17 8t20 7t16.5 3q4 0 9 1t9 1q16 0 36.5 -5.5t36.5 -19.5q2 -2 5 -2t4 -1q21 -20 40 -43t46 -52
q12 24 30 43.5t38 34.5t40 23.5t36 10.5q5 0 9.5 2.5t8.5 2.5t16 1t16 1q12 0 25.5 -7t33.5 -24h4z" />
    <glyph glyph-name="question" unicode="?" horiz-adv-x="560" 
d="M533 622q-10 -31 -33 -54.5t-52.5 -40.5t-64 -28t-67 -16.5t-61 -7t-46.5 1.5q-5 1 -18 -5.5t-27 -15.5t-25.5 -18t-13.5 -14q-3 -11 5.5 -24.5t21 -26.5t25 -22t16.5 -10q24 -8 44 -11t37 -4.5t31 -2.5t27 -5q3 -1 3.5 -18.5t-1 -38t-2.5 -38l-1 -17.5q-3 -9 -23.5 -9.5
t-45 2.5t-46 7t-25.5 5q-24 8 -57 29.5t-60.5 52t-43 67.5t-3.5 75q1 1 5 7t8.5 13t8.5 12.5t5 7.5q0 3 0.5 4.5t0.5 3.5q51 38 113 65.5t117 38.5q25 5 49.5 18.5t32.5 36.5q4 12 -1 25t-20 18q-4 1 -9.5 1.5t-28.5 8.5q-18 3 -50 3t-64 -0.5t-57.5 -0.5t-31.5 2
q-3 1 -5 18t-2.5 37.5t-0.5 38v17.5q3 10 30.5 13.5t64 2.5t74 -5.5t61.5 -10.5q15 -3 24 -6t15 -5.5t10.5 -5t11.5 -4.5q9 -6 25 -16t33.5 -23.5t35 -29t31 -32t19.5 -33.5t1 -33zM245 -20q-1 0 -2 -0.5t-3 -0.5q-3 2 -5 4.5t-6 3.5q-2 0 -11.5 -2t-22 -4.5t-27.5 -4
t-27 0.5q-16 3 -20 4t-7 3q-2 0 -8.5 9.5t-14 20.5t-13 21t-4.5 12q4 12 13.5 20.5t19.5 14t18 9t9 7.5l7.5 3.5t16.5 7.5t16.5 7.5t8.5 3.5q16 -5 26.5 -22t17.5 -38.5t11 -43t7 -36.5z" />
    <glyph glyph-name="at" unicode="@" 
d="M655 463q7 -7 17 -14.5t10 -10.5q0 -7 3.5 -14t8.5 -15q3 -5 4 -11t3 -13l-8 -7q6 -5 7.5 -6t1.5 -2q0 -4 -3 -10.5t-3 -10.5t-2 -4t-7 -6q-2 -4 -3.5 -9.5t-3.5 -9.5q-61 -77 -138 -146t-155 -141q-33 25 -69.5 56t-72.5 64.5t-69 68.5t-58 68q-5 6 -10.5 14.5
t-10.5 16.5t-8 13.5t-3 7.5q0 4 -1 9t-1 9q0 2 1 7.5t2 12.5t2 12.5t1 7.5q0 9 7.5 20t17.5 21.5t20 18.5t15 13q1 1 8.5 5t17 8t20 7t16.5 3q4 0 9 1t9 1q16 0 36.5 -5.5t36.5 -19.5q2 -2 5 -2t4 -1q21 -20 40 -43t46 -52q12 24 30 43.5t38 34.5t40 23.5t36 10.5
q5 0 9.5 2.5t8.5 2.5t16 1t16 1q12 0 25.5 -7t33.5 -24h4zM655 463q7 -7 17 -14.5t10 -10.5q0 -7 3.5 -14t8.5 -15q3 -5 4 -11t3 -13l-8 -7q6 -5 7.5 -6t1.5 -2q0 -4 -3 -10.5t-3 -10.5t-2 -4t-7 -6q-2 -4 -3.5 -9.5t-3.5 -9.5q-61 -77 -138 -146t-155 -141q-33 25 -69.5 56
t-72.5 64.5t-69 68.5t-58 68q-5 6 -10.5 14.5t-10.5 16.5t-8 13.5t-3 7.5q0 4 -1 9t-1 9q0 2 1 7.5t2 12.5t2 12.5t1 7.5q0 9 7.5 20t17.5 21.5t20 18.5t15 13q1 1 8.5 5t17 8t20 7t16.5 3q4 0 9 1t9 1q16 0 36.5 -5.5t36.5 -19.5q2 -2 5 -2t4 -1q21 -20 40 -43t46 -52
q12 24 30 43.5t38 34.5t40 23.5t36 10.5q5 0 9.5 2.5t8.5 2.5t16 1t16 1q12 0 25.5 -7t33.5 -24h4z" />
    <glyph glyph-name="A" unicode="A" horiz-adv-x="580" 
d="M350 516l205 -515v-30h-102q-29 57 -52.5 109t-48.5 103l-4.5 4.5l-4.5 4.5h-34q-5 0 -24.5 -1t-33.5 -5q-2 -1 -7 -5t-6 -8q-2 -7 -4 -16.5t-3.5 -18.5t-2 -16t-0.5 -10t-3.5 -17.5t-8 -34.5t-10 -43t-8.5 -43h-155q0 14 -1.5 15.5t-1.5 7.5q0 3 2.5 14t6 26t7.5 30.5
t7 27.5q26 102 54.5 203.5t57.5 205.5q9 12 29 12h146z" />
    <glyph glyph-name="B" unicode="B" horiz-adv-x="486" 
d="M311 335q13 -9 26.5 -16t26.5 -14t24.5 -16.5t20.5 -22.5q34 -52 36.5 -95t-18.5 -76.5t-59.5 -57t-85.5 -37t-97 -16t-94 5.5q-10 86 -20.5 171.5t-18.5 172.5q0 1 -1.5 20.5t-2 46.5t0 57t3.5 54t10 36.5t20 4.5q26 1 57 2.5t63 0t61.5 -8t52.5 -21t37 -40t14 -65.5
q0 -18 -9 -30.5t-19.5 -22t-19 -17t-8.5 -16.5z" />
    <glyph glyph-name="C" unicode="C" horiz-adv-x="494" 
d="M211 649q34 0 62 -1t53.5 -6.5t50 -17t53.5 -32.5l-52 -85q-30 7 -64 15.5t-64 8.5q-20 0 -39 -22t-33.5 -56.5t-23 -77t-7 -84t15.5 -77.5t43.5 -56.5t77.5 -21.5t117 27q2 -4 9.5 -17t15.5 -28t14.5 -28t6.5 -16q0 -10 -14.5 -22t-37 -24t-49.5 -23.5t-52.5 -20.5
t-46 -14t-29.5 -5q-53 2 -89 36t-57.5 87t-29 119t-4.5 132.5t15.5 127t32.5 102.5z" />
    <glyph glyph-name="D" unicode="D" horiz-adv-x="493" 
d="M441 311q0 -35 -0.5 -69t-10 -67.5t-32 -66.5t-65.5 -65q-19 -14 -48 -26t-57.5 -21t-50 -14t-25.5 -5q-6 0 -8 3t-8 3q-5 0 -13.5 -6t-14.5 -6h-30l-16 594q-2 3 -9 9.5t-34 24.5q28 7 49 12t37 8t29 4t27 1q73 0 126 -28.5t87 -73.5t50.5 -100.5t16.5 -110.5z" />
    <glyph glyph-name="E" unicode="E" horiz-adv-x="501" 
d="M60 687q0 1 1 6.5t3 5.5l374 -14q19 0 30 -12q-3 -11 -3 -23.5t-1 -25t-4.5 -24.5t-12.5 -21l-277 11v-205h125q5 -3 5.5 -5t0.5 -5q0 -36 -4 -53.5t-18.5 -24t-42 -6.5h-74.5v-202h269q4 -9 7 -26.5t5.5 -36t4 -34t1.5 -18.5q0 -2 -3 -3t-5 -2l-401 10q-3 -2 -5 2t-2 6
l11 216l8 310l8 174v0z" />
    <glyph glyph-name="F" unicode="F" horiz-adv-x="626" 
d="M530 683q2 0 10.5 1.5t17.5 2t16.5 -1.5t7.5 -9q0 -1 1 -6.5t1 -6.5q0 -2 -2 -14t-5 -26t-5 -26t-2 -14q0 -27 -2.5 -42t-10 -21.5t-23 -7.5t-40.5 -1q-4 0 -10 4t-10 4t-8 -2t-8 -2l-104 6q-17 1 -23.5 1.5t-17 0.5t-32.5 -1t-70 -4q-2 -24 -3 -46.5t-3 -60.5
q-1 -17 -1.5 -37.5t1.5 -63.5l149 5q3 -2 6.5 -4t3.5 -4q1 -31 1.5 -44t0.5 -17.5v-6v-9.5q0 -2 -3.5 -4t-6.5 -3l-124 -4q-5 0 -9.5 -2t-12.5 -6l6 -238q-2 -2 -4 -4.5t-4 -3.5l-154 2q-3 1 -8 6v702q2 6 4 6q4 0 5 1t5 1t13 -3t13 -3l114 -2z" />
    <glyph glyph-name="G" unicode="G" horiz-adv-x="611" 
d="M29 357q0 42 19.5 93t54.5 95t82.5 74t103.5 30q4 0 6.5 -3t5.5 -3l76 2q9 -3 37 -4q12 -1 34 -1t43.5 -2t37.5 -8.5t16 -20.5q0 -4 -3 -16.5t-3 -16.5t1 -13t-1 -28q-1 -9 -0.5 -21t0 -23t-3.5 -18.5t-11 -7.5q-5 0 -23 8t-42 18t-52 18t-54 8q-51 0 -91.5 -23t-68 -59
t-42 -79t-14.5 -83q0 -4 -1 -17t-1 -17q0 -41 22.5 -68.5t54.5 -44t66.5 -23t58.5 -6.5q14 0 39.5 6t50.5 18.5t43.5 31t18.5 42.5v19l-206 -17q-8 0 -10.5 9.5t-3 23t0 27.5t-0.5 23q-1 13 -1.5 16.5t-0.5 7.5q0 7 19.5 10.5t46.5 5.5t56 3t47 4q15 2 35 5t38 5.5t30.5 4
t14.5 1.5q9 0 15 -25.5t10 -57.5t6 -60.5t2 -33.5q0 -39 -29 -74.5t-69 -61.5t-82 -41.5t-68 -15.5q-71 0 -128 15t-97.5 48.5t-62.5 88t-22 134.5v98v0z" />
    <glyph glyph-name="H" unicode="H" horiz-adv-x="652" 
d="M175 543q0 -4 3.5 -6t8 -3.5t8.5 -2t5 -0.5l182 3q5 0 8 -3t9 -3q2 0 6.5 6t4.5 9v293h155q-3 -17 -4 -34t-0.5 -31.5t1 -25t0.5 -13.5l-17 -356v-265q0 -14 -6 -25.5t-6 -22.5q0 -5 5 -14t8 -23l-12 -18q15 -3 19.5 -5.5t1 -6t-13.5 -8.5t-23 -12h-108l-10 407
q-10 23 -32.5 29.5t-50 5t-57 -5.5t-53.5 -1q-22 2 -28.5 2.5t-12.5 0.5q-3 0 -6 -7v-433h-126v427l-13 439h154v-297z" />
    <glyph glyph-name="I" unicode="I" horiz-adv-x="398" 
d="M52 611q13 9 27.5 12.5t30 4.5t31 1t30.5 3l149 6q2 -2 5 -3t3 -3q0 -13 0.5 -33.5t0.5 -40.5t0.5 -35t0.5 -17q0 -6 -9 -9.5t-23 -5t-30.5 -2.5t-31.5 -3v-420q22 -5 39 -3.5t33 -12.5v-93q-3 -5 -6 -5l-19 2.5t-47 7t-60.5 9.5t-60.5 11t-46.5 12t-18.5 11
q0 17 4.5 33.5t14 28.5t25 17t37.5 -1l7 141v248h-76l-4.5 4.5t-3.5 5.5l-2 129v0z" />
    <glyph glyph-name="J" unicode="J" horiz-adv-x="541" 
d="M350 638q0 34 10.5 50.5t28.5 22.5t40.5 5.5t46.5 -0.5t32 -7.5t8.5 -19.5t-1.5 -28t1 -33q3 -18 4.5 -29.5t2.5 -19.5t1 -14v-15q0 -10 4 -18q-8 -8 -8 -16v-16l2 -404q0 -14 1 -24.5t2 -20t2 -18.5t1 -21q0 -14 -20 -41t-47.5 -54t-56 -47t-44.5 -20q-4 0 -3 2t-3 2
q-2 0 -12 -2.5l-22 -5.5l-22 -5.5t-12 -2.5q-6 0 -25 4.5t-39 9.5t-36.5 10l-16.5 5q-4 3 -16 16.5t-28 33t-34 42t-33 43t-24.5 36.5t-9.5 22q0 1 18.5 11.5t41 22.5t42 22t21.5 10q4 0 13.5 -13.5t21.5 -31.5t27 -36t32 -27q33 -8 61 1t48.5 26.5t32 39.5t11.5 40l-27 214
l-17 299v0z" />
    <glyph glyph-name="K" unicode="K" horiz-adv-x="601" 
d="M454 17l-14 -14h-103q-49 60 -90.5 120t-96.5 119q-1 -2 -1.5 -2.5t-1.5 -2.5l3 -250q-22 -5 -38.5 -4t-22.5 1t-12 3t-22 3v384l-36 303h154l-14 -182q1 -15 2 -25t1 -20t-1 -21t-2 -27q0 -3 3 -4q32 26 64 58t63.5 66t62 67t59.5 61q8 8 21.5 8.5t30.5 4.5q3 -3 6.5 -4
t12.5 -0.5t26 2t47 3.5l-335 -348l235 -282z" />
    <glyph glyph-name="L" unicode="L" horiz-adv-x="530" 
d="M16 807q0 5 2 5q5 0 20 -2.5t35.5 -6.5t43 -9.5t43 -11.5t34.5 -12.5t18 -12.5q6 -11 9 -28t3.5 -33t0 -28t-0.5 -15l-10 -301v-210l258 80q6 -2 6 -3q0 -5 -3.5 -35.5t-9.5 -68.5t-14.5 -74.5t-18.5 -54.5l-232 2l-79 4q-8 1 -15 -1t-13 3l2 4t1 5l-9 240l-71 564v0z
" />
    <glyph glyph-name="M" unicode="M" horiz-adv-x="663" 
d="M41 548q6 8 18 19t24.5 20.5t22 16.5l9.5 7q13 0 32 -13t40.5 -33t43.5 -44t40.5 -46t32.5 -39t20 -23q10 8 28 25t40 38t47 43t48 40.5t42.5 30t32.5 11.5q3 0 13 -7.5t21 -18t21.5 -20.5t15.5 -14v-585q0 -17 -24 -17l-130 -4q-6 0 -8 7l8 367q-2 20 -5 42.5t-9 58.5
l-163 -189q-29 30 -64 67.5t-79 70.5l79 -370q-4 -6 -9 -8l-126 -4q-7 0 -12.5 16t-9.5 42t-7.5 59t-7 67t-7 65t-8.5 54l-10 268v0z" />
    <glyph glyph-name="N" unicode="N" horiz-adv-x="636" 
d="M31 654q0 3 16.5 7.5t36.5 8t37 6.5t18 3q6 0 25.5 -23.5t47.5 -62t62.5 -87.5t69 -99t67.5 -96.5t59 -80.5l-7 269q0 3 -3 7t-3 8t2 5.5t2 5.5t-3 14.5t-1 38.5q0 5 8 9.5t11 3.5l115 4q2 -2 4 -3t2 -3l-16 -524v-10t-11 -8l-88 2q-36 44 -69.5 92t-68 98t-72 102
t-81.5 105v-237l8 -240q-2 -4 -5 -6.5t-5 -3.5l-118 -6q-8 0 -10 3.5t-1 8.5t3 11.5t2 11.5q0 4 -1.5 18.5t-3 35t-3.5 44t-4 44t-3 35.5t-1 20q0 4 2 6.5t2 6.5t-2 7.5t-2 7.5q0 1 -1.5 15.5t-3 31.5t-2.5 31.5l-1 14.5q0 4 2 7.5t2 7.5q0 7 -2 18t-4 23.5t-4 24t-2 20.5v6
l-0.5 2t-0.5 11t-0.5 34.5t-0.5 71.5v122z" />
    <glyph glyph-name="O" unicode="O" horiz-adv-x="530" 
d="M481 262q4 -1 2.5 -5t-1.5 -6q-2 -9 -1.5 -17.5t5.5 -16.5q-5 -10 -6 -22t-1 -23.5t-1 -21.5t-6 -15l6 -14q-3 -12 -16 -31t-28.5 -38t-31 -35.5t-24.5 -25.5q-3 4 -7 3t-7.5 -2.5t-6.5 -2t-5 3.5l-35 -7q0 2 -5.5 2t-12 -1t-13.5 -3t-10 -3q-4 3 -10.5 3.5t-9.5 -3.5
q-18 3 -31.5 2.5t-31.5 -2.5l-7 4q-14 -6 -28 -6.5t-28 -1.5l-76 45q-4 56 -11 114.5t-12 118t-7.5 118t2.5 114.5q18 29 30 49.5t25.5 34t33.5 20.5t55 10q45 3 76.5 7.5t55 7t40.5 1t33.5 -10t34 -26t41.5 -47.5q4 5 7.5 4.5t6.5 -4t5 -8.5t2 -9l-8 -14l27 -22
q-4 -8 -5 -18t4 -18q-3 -2 -4 -9t-0.5 -15t2.5 -15.5t4 -9.5l-12 -14l14 -22l-6 -16q2 -5 2 -13t-0.5 -16.5t-0.5 -16t3 -9.5l-11 -26v0z" />
    <glyph glyph-name="P" unicode="P" horiz-adv-x="479" 
d="M34 751q33 23 78 32t93.5 4t94.5 -23t81 -48t53.5 -71.5t11.5 -93.5q-5 -34 -34 -71t-69 -68t-83.5 -50t-77.5 -16l35 -363l-5 -6h-104q-6 0 -10.5 12.5t-8 28t-5.5 30t-3 18.5q-11 74 -19.5 150.5t-12.5 151.5l-15 383v0z" />
    <glyph glyph-name="Q" unicode="Q" horiz-adv-x="626" 
d="M38 142q2 10 2.5 27t-0.5 35.5t-1.5 35t-0.5 26.5q0 32 5.5 69.5t16.5 75t28.5 72t42 60.5t56 42t71.5 16q111 0 181 -29.5t106.5 -77t44.5 -107.5t-5 -120.5t-43 -116t-67.5 -95t-79.5 -56t-80 0.5q29 -29 56.5 -58.5t53.5 -60.5l-19 -23q-53 31 -108 55t-104.5 53.5
t-90.5 70t-65 105.5z" />
    <glyph glyph-name="R" unicode="R" horiz-adv-x="427" 
d="M223 581q27 0 53.5 -6t47.5 -20.5t34 -38.5t13 -61q0 -36 -7.5 -60.5t-25 -44.5t-45.5 -39t-69 -43l159 -211q-28 -20 -51 -40t-53 -43l-148 200q-2 -4 -4 -8.5t-2 -6.5v-188h-105v611z" />
    <glyph glyph-name="S" unicode="S" horiz-adv-x="582" 
d="M264 650q20 0 24 1t8 1q11 0 20 -3t14 -3q7 0 11 4q9 -3 20.5 -3t22 -1t17.5 -4t7 -13q0 -3 -1.5 -23t-4.5 -42.5t-8 -41t-13 -18.5l-124 2q-9 -1 -28.5 -8t-39 -18t-34.5 -25t-15 -29q0 -9 11.5 -22.5t26 -25.5t28 -21t17.5 -10q25 -8 51 -10.5t52 -6t50.5 -10.5
t47.5 -23q55 -39 91.5 -85t36.5 -90q0 -27 -16.5 -49.5t-42.5 -40.5t-57 -31.5t-59.5 -22.5t-51 -13.5t-30.5 -4.5h-103q-2 0 -26 5t-52.5 12.5t-52 15t-23.5 13.5q0 2 1.5 8.5t3.5 14.5t3.5 14.5t1.5 8.5q2 20 6 36q2 14 5.5 25t7.5 11q7 0 33 -5.5t58.5 -12.5t64.5 -12.5
t53 -5.5q6 0 21 1t30.5 5t28 11.5t12.5 20.5q0 20 -25 40t-62.5 42t-81.5 46t-81.5 53.5t-62.5 65t-25 78.5q0 36 24.5 70.5t60.5 62.5t76.5 45.5t72.5 20.5z" />
    <glyph glyph-name="T" unicode="T" horiz-adv-x="685" 
d="M31 575v6.5t5 6.5l15 -3l604 -14q3 -1 6.5 -1.5t3.5 -2.5t-1 -13t-2 -24t-2 -24t-1 -13t0.5 -7t0.5 -10t-2 -9.5t-7 -5.5q-19 -3 -45.5 -7.5t-55.5 -9.5t-58 -10.5t-51.5 -10t-37 -9t-14.5 -7.5v-257l10 -170q0 -2 -0.5 -4t-4.5 -5h-81q-14 54 -24 110t-19 112
t-18.5 113.5t-22.5 114.5q-27 6 -55 6t-53.5 1.5t-47 8.5t-34.5 29l-8 109v0z" />
    <glyph glyph-name="U" unicode="U" horiz-adv-x="552" 
d="M327 684q0 4 2 4l184 -2q2 -2 4 -3t4 -3v-184l-18 -366q-33 -81 -80 -117.5t-107 -36.5l-106 6q-20 1 -51.5 18t-60.5 39t-50 45t-21 38v282l10 272q2 4 8 8l83 -2q4 0 14 2.5t20 3.5t17.5 -1.5t7.5 -12.5v-411q0 -12 5 -33t15.5 -41t28 -34.5t42.5 -14.5q9 0 14.5 1.5
t10.5 6t9.5 12.5t12.5 21l6 181v311q0 4 -2 5.5t-2 5.5z" />
    <glyph glyph-name="V" unicode="V" horiz-adv-x="608" 
d="M29 619q0 3 2 3l71 -4q7 -1 15.5 1t16.5 3.5t14.5 0.5t9.5 -7q30 -54 48.5 -113.5t33.5 -122.5t29 -128.5t34 -132.5q15 33 33 77.5t37 92.5t38 94.5t35.5 83.5t29.5 60t21 23h16.5t36 -2t35.5 -6t16 -11q0 -5 -10 -38.5t-26 -84t-37 -112t-43 -123t-44 -116t-40 -91.5
l-190 8q-8 2 -8 4q0 4 2 4t2 4q0 5 -5.5 24.5t-14.5 48t-20 62t-21.5 65t-19.5 59t-13 43.5q-8 27 -17 62.5t-18.5 72t-18 71.5t-15.5 62.5t-11 44.5t-4 18z" />
    <glyph glyph-name="W" unicode="W" horiz-adv-x="795" 
d="M762 561l-114 -267l-24 -95l-48 -144l-124 -26l-39 196l-7 10l-5 -7l-81 -212l-58 -16h-19l-236 557l120 19l72 -151l37 -116l13 -44l21 -67l17 -48l6 8l52 280l103 19l23 -82l15 -85l25 -89l7 7l103 354z" />
    <glyph glyph-name="X" unicode="X" horiz-adv-x="516" 
d="M43 -27q-4 2 -7 5l129 371l-14 45.5t-22.5 73.5t-25.5 87t-24.5 86.5t-18.5 70.5t-7 41q0 7 16.5 11.5t36.5 6.5t37.5 3t19.5 1q10 0 20.5 -17.5t21 -46t20.5 -63t19.5 -68.5t17.5 -63.5t14 -46.5q10 16 25.5 41.5t33 53.5t35 56.5t33.5 51.5t28.5 37.5t19.5 14.5
q4 0 18 1t18 1t3 -2t3 -2t4 2t4 2q5 0 11.5 -6t6.5 -11l-3 -5.5t-7.5 -12t-9.5 -14t-9 -12.5l-168 -328q11 -23 27 -54.5t33 -65.5t34 -67.5t30.5 -60.5l22 -44t8.5 -19q0 -4 1 -6.5t1 -6.5q0 -3 -4 -4t-9.5 -2t-10 -1h-4.5q-4 0 -8 2t-8 2t-6.5 -2t-4.5 -2q-22 -2 -39 -4
t-21 -2q-9 0 -25 27t-35 64.5t-39 78.5t-36 70q-20 -77 -36 -138t-36 -119q-5 -11 -12 -9t-13 2z" />
    <glyph glyph-name="Y" unicode="Y" horiz-adv-x="497" 
d="M157 739q27 -86 52 -167t70 -156q25 37 42.5 75t31.5 76.5t26.5 78t29.5 80.5q17 0 31 0.5t38 2.5q9 2 15.5 -4t6.5 -17q0 -7 -10 -33.5t-25.5 -64t-34 -82t-35 -88.5t-28.5 -83.5t-15 -65.5l-9 -215q-3 -38 -5.5 -58t-6.5 -42h-155q9 12 15.5 16.5t10 12.5t4.5 24.5
t-0.5 54t-5 101.5t-8.5 165q-1 16 -7.5 31t-15.5 29.5t-18 28.5t-16 28q-29 60 -60 120t-65 123q0 14 15 29h132z" />
    <glyph glyph-name="Z" unicode="Z" horiz-adv-x="546" 
d="M431 583l8 -4l50 -78l10 -31l-282 -329l12 -15l6 3l167 -22l3 4l52 -12l30 5l20 -9l-70 -144l-98 20l-175 31l-75 8l-58 101l236 292l-186 -45l-58 116z" />
    <glyph glyph-name="bracketleft" unicode="[" 
d="M655 463q7 -7 17 -14.5t10 -10.5q0 -7 3.5 -14t8.5 -15q3 -5 4 -11t3 -13l-8 -7q6 -5 7.5 -6t1.5 -2q0 -4 -3 -10.5t-3 -10.5t-2 -4t-7 -6q-2 -4 -3.5 -9.5t-3.5 -9.5q-61 -77 -138 -146t-155 -141q-33 25 -69.5 56t-72.5 64.5t-69 68.5t-58 68q-5 6 -10.5 14.5
t-10.5 16.5t-8 13.5t-3 7.5q0 4 -1 9t-1 9q0 2 1 7.5t2 12.5t2 12.5t1 7.5q0 9 7.5 20t17.5 21.5t20 18.5t15 13q1 1 8.5 5t17 8t20 7t16.5 3q4 0 9 1t9 1q16 0 36.5 -5.5t36.5 -19.5q2 -2 5 -2t4 -1q21 -20 40 -43t46 -52q12 24 30 43.5t38 34.5t40 23.5t36 10.5
q5 0 9.5 2.5t8.5 2.5t16 1t16 1q12 0 25.5 -7t33.5 -24h4zM655 463q7 -7 17 -14.5t10 -10.5q0 -7 3.5 -14t8.5 -15q3 -5 4 -11t3 -13l-8 -7q6 -5 7.5 -6t1.5 -2q0 -4 -3 -10.5t-3 -10.5t-2 -4t-7 -6q-2 -4 -3.5 -9.5t-3.5 -9.5q-61 -77 -138 -146t-155 -141q-33 25 -69.5 56
t-72.5 64.5t-69 68.5t-58 68q-5 6 -10.5 14.5t-10.5 16.5t-8 13.5t-3 7.5q0 4 -1 9t-1 9q0 2 1 7.5t2 12.5t2 12.5t1 7.5q0 9 7.5 20t17.5 21.5t20 18.5t15 13q1 1 8.5 5t17 8t20 7t16.5 3q4 0 9 1t9 1q16 0 36.5 -5.5t36.5 -19.5q2 -2 5 -2t4 -1q21 -20 40 -43t46 -52
q12 24 30 43.5t38 34.5t40 23.5t36 10.5q5 0 9.5 2.5t8.5 2.5t16 1t16 1q12 0 25.5 -7t33.5 -24h4z" />
    <glyph glyph-name="backslash" unicode="\" 
d="M655 463q7 -7 17 -14.5t10 -10.5q0 -7 3.5 -14t8.5 -15q3 -5 4 -11t3 -13l-8 -7q6 -5 7.5 -6t1.5 -2q0 -4 -3 -10.5t-3 -10.5t-2 -4t-7 -6q-2 -4 -3.5 -9.5t-3.5 -9.5q-61 -77 -138 -146t-155 -141q-33 25 -69.5 56t-72.5 64.5t-69 68.5t-58 68q-5 6 -10.5 14.5
t-10.5 16.5t-8 13.5t-3 7.5q0 4 -1 9t-1 9q0 2 1 7.5t2 12.5t2 12.5t1 7.5q0 9 7.5 20t17.5 21.5t20 18.5t15 13q1 1 8.5 5t17 8t20 7t16.5 3q4 0 9 1t9 1q16 0 36.5 -5.5t36.5 -19.5q2 -2 5 -2t4 -1q21 -20 40 -43t46 -52q12 24 30 43.5t38 34.5t40 23.5t36 10.5
q5 0 9.5 2.5t8.5 2.5t16 1t16 1q12 0 25.5 -7t33.5 -24h4zM655 463q7 -7 17 -14.5t10 -10.5q0 -7 3.5 -14t8.5 -15q3 -5 4 -11t3 -13l-8 -7q6 -5 7.5 -6t1.5 -2q0 -4 -3 -10.5t-3 -10.5t-2 -4t-7 -6q-2 -4 -3.5 -9.5t-3.5 -9.5q-61 -77 -138 -146t-155 -141q-33 25 -69.5 56
t-72.5 64.5t-69 68.5t-58 68q-5 6 -10.5 14.5t-10.5 16.5t-8 13.5t-3 7.5q0 4 -1 9t-1 9q0 2 1 7.5t2 12.5t2 12.5t1 7.5q0 9 7.5 20t17.5 21.5t20 18.5t15 13q1 1 8.5 5t17 8t20 7t16.5 3q4 0 9 1t9 1q16 0 36.5 -5.5t36.5 -19.5q2 -2 5 -2t4 -1q21 -20 40 -43t46 -52
q12 24 30 43.5t38 34.5t40 23.5t36 10.5q5 0 9.5 2.5t8.5 2.5t16 1t16 1q12 0 25.5 -7t33.5 -24h4z" />
    <glyph glyph-name="bracketright" unicode="]" 
d="M655 463q7 -7 17 -14.5t10 -10.5q0 -7 3.5 -14t8.5 -15q3 -5 4 -11t3 -13l-8 -7q6 -5 7.5 -6t1.5 -2q0 -4 -3 -10.5t-3 -10.5t-2 -4t-7 -6q-2 -4 -3.5 -9.5t-3.5 -9.5q-61 -77 -138 -146t-155 -141q-33 25 -69.5 56t-72.5 64.5t-69 68.5t-58 68q-5 6 -10.5 14.5
t-10.5 16.5t-8 13.5t-3 7.5q0 4 -1 9t-1 9q0 2 1 7.5t2 12.5t2 12.5t1 7.5q0 9 7.5 20t17.5 21.5t20 18.5t15 13q1 1 8.5 5t17 8t20 7t16.5 3q4 0 9 1t9 1q16 0 36.5 -5.5t36.5 -19.5q2 -2 5 -2t4 -1q21 -20 40 -43t46 -52q12 24 30 43.5t38 34.5t40 23.5t36 10.5
q5 0 9.5 2.5t8.5 2.5t16 1t16 1q12 0 25.5 -7t33.5 -24h4zM655 463q7 -7 17 -14.5t10 -10.5q0 -7 3.5 -14t8.5 -15q3 -5 4 -11t3 -13l-8 -7q6 -5 7.5 -6t1.5 -2q0 -4 -3 -10.5t-3 -10.5t-2 -4t-7 -6q-2 -4 -3.5 -9.5t-3.5 -9.5q-61 -77 -138 -146t-155 -141q-33 25 -69.5 56
t-72.5 64.5t-69 68.5t-58 68q-5 6 -10.5 14.5t-10.5 16.5t-8 13.5t-3 7.5q0 4 -1 9t-1 9q0 2 1 7.5t2 12.5t2 12.5t1 7.5q0 9 7.5 20t17.5 21.5t20 18.5t15 13q1 1 8.5 5t17 8t20 7t16.5 3q4 0 9 1t9 1q16 0 36.5 -5.5t36.5 -19.5q2 -2 5 -2t4 -1q21 -20 40 -43t46 -52
q12 24 30 43.5t38 34.5t40 23.5t36 10.5q5 0 9.5 2.5t8.5 2.5t16 1t16 1q12 0 25.5 -7t33.5 -24h4z" />
    <glyph glyph-name="asciicircum" unicode="^" 
d="M655 463q7 -7 17 -14.5t10 -10.5q0 -7 3.5 -14t8.5 -15q3 -5 4 -11t3 -13l-8 -7q6 -5 7.5 -6t1.5 -2q0 -4 -3 -10.5t-3 -10.5t-2 -4t-7 -6q-2 -4 -3.5 -9.5t-3.5 -9.5q-61 -77 -138 -146t-155 -141q-33 25 -69.5 56t-72.5 64.5t-69 68.5t-58 68q-5 6 -10.5 14.5
t-10.5 16.5t-8 13.5t-3 7.5q0 4 -1 9t-1 9q0 2 1 7.5t2 12.5t2 12.5t1 7.5q0 9 7.5 20t17.5 21.5t20 18.5t15 13q1 1 8.5 5t17 8t20 7t16.5 3q4 0 9 1t9 1q16 0 36.5 -5.5t36.5 -19.5q2 -2 5 -2t4 -1q21 -20 40 -43t46 -52q12 24 30 43.5t38 34.5t40 23.5t36 10.5
q5 0 9.5 2.5t8.5 2.5t16 1t16 1q12 0 25.5 -7t33.5 -24h4zM655 463q7 -7 17 -14.5t10 -10.5q0 -7 3.5 -14t8.5 -15q3 -5 4 -11t3 -13l-8 -7q6 -5 7.5 -6t1.5 -2q0 -4 -3 -10.5t-3 -10.5t-2 -4t-7 -6q-2 -4 -3.5 -9.5t-3.5 -9.5q-61 -77 -138 -146t-155 -141q-33 25 -69.5 56
t-72.5 64.5t-69 68.5t-58 68q-5 6 -10.5 14.5t-10.5 16.5t-8 13.5t-3 7.5q0 4 -1 9t-1 9q0 2 1 7.5t2 12.5t2 12.5t1 7.5q0 9 7.5 20t17.5 21.5t20 18.5t15 13q1 1 8.5 5t17 8t20 7t16.5 3q4 0 9 1t9 1q16 0 36.5 -5.5t36.5 -19.5q2 -2 5 -2t4 -1q21 -20 40 -43t46 -52
q12 24 30 43.5t38 34.5t40 23.5t36 10.5q5 0 9.5 2.5t8.5 2.5t16 1t16 1q12 0 25.5 -7t33.5 -24h4z" />
    <glyph glyph-name="underscore" unicode="_" 
d="M655 463q7 -7 17 -14.5t10 -10.5q0 -7 3.5 -14t8.5 -15q3 -5 4 -11t3 -13l-8 -7q6 -5 7.5 -6t1.5 -2q0 -4 -3 -10.5t-3 -10.5t-2 -4t-7 -6q-2 -4 -3.5 -9.5t-3.5 -9.5q-61 -77 -138 -146t-155 -141q-33 25 -69.5 56t-72.5 64.5t-69 68.5t-58 68q-5 6 -10.5 14.5
t-10.5 16.5t-8 13.5t-3 7.5q0 4 -1 9t-1 9q0 2 1 7.5t2 12.5t2 12.5t1 7.5q0 9 7.5 20t17.5 21.5t20 18.5t15 13q1 1 8.5 5t17 8t20 7t16.5 3q4 0 9 1t9 1q16 0 36.5 -5.5t36.5 -19.5q2 -2 5 -2t4 -1q21 -20 40 -43t46 -52q12 24 30 43.5t38 34.5t40 23.5t36 10.5
q5 0 9.5 2.5t8.5 2.5t16 1t16 1q12 0 25.5 -7t33.5 -24h4zM655 463q7 -7 17 -14.5t10 -10.5q0 -7 3.5 -14t8.5 -15q3 -5 4 -11t3 -13l-8 -7q6 -5 7.5 -6t1.5 -2q0 -4 -3 -10.5t-3 -10.5t-2 -4t-7 -6q-2 -4 -3.5 -9.5t-3.5 -9.5q-61 -77 -138 -146t-155 -141q-33 25 -69.5 56
t-72.5 64.5t-69 68.5t-58 68q-5 6 -10.5 14.5t-10.5 16.5t-8 13.5t-3 7.5q0 4 -1 9t-1 9q0 2 1 7.5t2 12.5t2 12.5t1 7.5q0 9 7.5 20t17.5 21.5t20 18.5t15 13q1 1 8.5 5t17 8t20 7t16.5 3q4 0 9 1t9 1q16 0 36.5 -5.5t36.5 -19.5q2 -2 5 -2t4 -1q21 -20 40 -43t46 -52
q12 24 30 43.5t38 34.5t40 23.5t36 10.5q5 0 9.5 2.5t8.5 2.5t16 1t16 1q12 0 25.5 -7t33.5 -24h4z" />
    <glyph glyph-name="grave" unicode="`" horiz-adv-x="229" 
d="M30 382q1 9 2.5 38t3.5 62.5t4 62.5t2 38q38 -2 79 0q0 -10 -3 -39.5t-6 -63t-5.5 -62.5t-2.5 -38q-19 2 -37 1.5t-37 0.5z" />
    <glyph glyph-name="a" unicode="a" horiz-adv-x="532" 
d="M311 516l205 -515v-30h-102q-29 57 -52.5 109t-48.5 103l-4.5 4.5l-4.5 4.5h-34q-5 0 -24.5 -1t-33.5 -5q-2 -1 -7 -5t-6 -8q-2 -7 -4 -16.5t-3.5 -18.5t-2 -16t-0.5 -10t-3.5 -17.5t-8 -34.5t-10 -43t-8.5 -43h-155q0 14 -1.5 15.5t-1.5 7.5q0 3 2.5 14t6 26t7.5 30.5
t7 27.5q26 102 54.5 203.5t57.5 205.5q9 12 29 12h146z" />
    <glyph glyph-name="b" unicode="b" horiz-adv-x="427" 
d="M275 335q13 -9 26.5 -16t26.5 -14t24.5 -16.5t20.5 -22.5q34 -52 36.5 -95t-18.5 -76.5t-59.5 -57t-85.5 -37t-97 -16t-94 5.5q-10 86 -20.5 171.5t-18.5 172.5q0 1 -1.5 20.5t-2 46.5t0 57t3.5 54t10 36.5t20 4.5q26 1 57 2.5t63 0t61.5 -8t52.5 -21t37 -40t14 -65.5
q0 -18 -9 -30.5t-19.5 -22t-19 -17t-8.5 -16.5z" />
    <glyph glyph-name="c" unicode="c" horiz-adv-x="448" 
d="M197 649q34 0 62 -1t53.5 -6.5t50 -17t53.5 -32.5l-52 -85q-30 7 -64 15.5t-64 8.5q-20 0 -39 -22t-33.5 -56.5t-23 -77t-7 -84t15.5 -77.5t43.5 -56.5t77.5 -21.5t117 27q2 -4 9.5 -17t15.5 -28t14.5 -28t6.5 -16q0 -10 -14.5 -22t-37 -24t-49.5 -23.5t-52.5 -20.5
t-46 -14t-29.5 -5q-53 2 -89 36t-57.5 87t-29 119t-4.5 132.5t15.5 127t32.5 102.5z" />
    <glyph glyph-name="d" unicode="d" horiz-adv-x="448" 
d="M441 311q0 -35 -0.5 -69t-10 -67.5t-32 -66.5t-65.5 -65q-19 -14 -48 -26t-57.5 -21t-50 -14t-25.5 -5q-6 0 -8 3t-8 3q-5 0 -13.5 -6t-14.5 -6h-30l-16 594q-2 3 -9 9.5t-34 24.5q28 7 49 12t37 8t29 4t27 1q73 0 126 -28.5t87 -73.5t50.5 -100.5t16.5 -110.5z" />
    <glyph glyph-name="e" unicode="e" horiz-adv-x="458" 
d="M35 533q0 1 1 6.5t3 5.5l374 -53q19 0 30 -12q-3 -11 -2.5 -25.5t0.5 -29t-3 -28t-12 -22.5l-277 11l-2 -111l121 2q2 -2 6 -6.5t7.5 -9.5t6.5 -10t3 -6q0 -36 -5 -50t-20 -17t-43.5 0.5t-75.5 3.5l4 -103l269 19q4 -9 7 -28t5.5 -39.5t4 -37t1.5 -19.5q0 -2 -3 -3t-5 -2
l-401 10q-3 -2 -5 2t-2 6l11 216l2 330v0z" />
    <glyph glyph-name="f" unicode="f" horiz-adv-x="573" 
d="M509 683q2 0 10.5 1.5t17.5 2t16.5 -1.5t7.5 -9q0 -1 1 -6.5t1 -6.5q0 -2 -2 -14t-5 -26t-5 -26t-2 -14q0 -27 -2.5 -42t-10 -21.5t-23 -7.5t-40.5 -1q-4 0 -10 4t-10 4t-8 -2t-8 -2l-104 6q-17 1 -23.5 1.5t-17 0.5t-32.5 -1t-70 -4q-2 -24 -3 -46.5t-3 -60.5
q-1 -17 -1.5 -37.5t1.5 -63.5l149 5q3 -2 6.5 -4t3.5 -4q1 -31 1.5 -44t0.5 -17.5v-6v-9.5q0 -2 -3.5 -4t-6.5 -3l-124 -4q-5 0 -9.5 -2t-12.5 -6l6 -238q-2 -2 -4 -4.5t-4 -3.5l-154 2q-3 1 -8 6v702q2 6 4 6q4 0 5 1t5 1t13 -3t13 -3l114 -2z" />
    <glyph glyph-name="g" unicode="g" horiz-adv-x="584" 
d="M8 357q0 42 19.5 93t54.5 95t82.5 74t103.5 30q4 0 6.5 -3t5.5 -3l76 2q9 -3 37 -4q12 -1 34 -1t43.5 -2t37.5 -8.5t16 -20.5q0 -4 -3 -16.5t-3 -16.5t1 -13t-1 -28q-1 -9 -0.5 -21t0 -23t-3.5 -18.5t-11 -7.5q-5 0 -23 8t-42 18t-52 18t-54 8q-51 0 -91.5 -23t-68 -59
t-42 -79t-14.5 -83q0 -4 -1 -17t-1 -17q0 -41 22.5 -68.5t54.5 -44t66.5 -23t58.5 -6.5q14 0 39.5 6t50.5 18.5t43.5 31t18.5 42.5v19l-206 -17q-8 0 -10.5 9.5t-3 23t0 27.5t-0.5 23q-1 13 -1.5 16.5t-0.5 7.5q0 7 19.5 10.5t46.5 5.5t56 3t47 4q15 2 35 5t38 5.5t30.5 4
t14.5 1.5q9 0 15 -25.5t10 -57.5t6 -60.5t2 -33.5q0 -39 -29 -74.5t-69 -61.5t-82 -41.5t-68 -15.5q-71 0 -128 15t-97.5 48.5t-62.5 88t-22 134.5v98v0z" />
    <glyph glyph-name="h" unicode="h" horiz-adv-x="551" 
d="M467 814q1 -2 4 -6t11 -12q6 3 11 8q2 -1 4.5 -2t5.5 -2q-5 -4 -10 -7.5t-16 -8.5q20 -11 31.5 -20.5t16.5 -9.5q4 0 1 2t1 2q3 0 5 -3.5t2.5 -8t0.5 -8.5v-4q0 -4 -3 -6t-3 -6t4 -8t4 -8t-2 -11.5t-4 -15.5q-3 -9 -6 -19q0 -4 3 -9t3 -9t-2 -7t-2 -7q0 -6 1 -7
q-7 -12 -7 -21q0 -4 2 -6t2 -6t-2 -12.5t-2 -12.5t2 -7.5t2 -7.5t-3 -5t-3 -5l-20 -458q-1 -7 -1 -9v-6t0.5 -13.5t0.5 -31.5q0 -4 -2 -3.5t-2 -3.5t3 -5.5t3 -5.5v-3.5t-0.5 -7.5t-3 -7.5t-6.5 -3.5t-6 2t-4 2q-21 -2 -33.5 -1.5t-21 1t-14 1.5t-11.5 1q-4 0 -12 -2t-12 -2
q-2 0 -7 2t-9 6v394l-181 22h-35l-8 -401q2 -4 -4.5 -7.5t-10.5 -5.5l-101 2q-8 2 -10 5.5t-2 6.5l10 179v635l-3 -8q2 2 2.5 6t2.5 4l138 -2q6 -4 8 -7v-111l-10 -179h220q3 78 5 121.5t3 64.5t2 26t1 7q1 5 -1 20t-2 20q0 1 4 8.5t7 13.5h8q4 0 6.5 2t6.5 2t12.5 -3
t12.5 -3t4.5 2t4.5 2t6 -3t4 -3zM526 798q3 -2 3 -4t-1 -3l-5 5z" />
    <glyph glyph-name="i" unicode="i" horiz-adv-x="313" 
d="M21 611q13 9 27.5 12.5t30 4.5t31 1t30.5 3l149 6q2 -2 5 -3t3 -3q0 -13 0.5 -33.5t0.5 -40.5t0.5 -35t0.5 -17q0 -6 -9 -9.5t-23 -5t-30.5 -2.5t-31.5 -3v-420q22 -5 39 -3.5t33 -12.5v-93q-3 -5 -6 -5l-19 2.5t-47 7t-60.5 9.5t-60.5 11t-46.5 12t-18.5 11
q0 17 4.5 33.5t14 28.5t25 17t37.5 -1l7 141v248h-76l-4.5 4.5t-3.5 5.5l-2 129v0z" />
    <glyph glyph-name="j" unicode="j" horiz-adv-x="560" 
d="M352 638q0 34 10.5 50.5t28.5 22.5t40.5 5.5t46.5 -0.5t32 -7.5t8.5 -19.5t-1.5 -28t1 -33q3 -18 4.5 -29.5t2.5 -19.5t1 -14v-15q0 -10 4 -18q-8 -8 -8 -16v-16l2 -404q0 -14 1 -24.5t2 -20t2 -18.5t1 -21q0 -14 -20 -41t-47.5 -54t-56 -47t-44.5 -20q-4 0 -3 2t-3 2
q-2 0 -12 -2.5l-22 -5.5l-22 -5.5t-12 -2.5q-6 0 -25 4.5t-39 9.5t-36.5 10l-16.5 5q-4 3 -16 16.5t-28 33t-34 42t-33 43t-24.5 36.5t-9.5 22q0 1 18.5 11.5t41 22.5t42 22t21.5 10q4 0 13.5 -13.5t21.5 -31.5t27 -36t32 -27q33 -8 61 1t48.5 26.5t32 39.5t11.5 40l-27 214
l-17 299v0z" />
    <glyph glyph-name="k" unicode="k" horiz-adv-x="509" 
d="M510 90q3 2 5.5 3.5t4.5 3.5l2 -2q-9 -5 -19 -11.5t-10 -14.5q0 -2 4 -5t9 -7t9 -8t4 -8q-2 -1 -3 -2q-2 -1 -4 -1q-3 0 -7.5 3.5t-12.5 6.5q-3 -4 -5 -7.5t-4 -8.5l-4 2l-4 2q0 -14 -0.5 -19t2.5 -13l-5 -5q-9 -2 -19.5 -6.5t-12.5 -4.5q-8 0 -28 15t-46 37.5t-54 49
t-53 51t-44 42.5t-25 23l-9 -209q0 -4 1.5 -10.5t-9.5 -6.5q-5 0 -18.5 0.5t-30.5 1.5t-35.5 2.5t-34 4t-25.5 5.5t-10 8q-2 130 -2.5 219.5t0.5 148.5t2 92t2.5 49.5t2 21t0.5 6.5q-1 5 -2 9t-1 8t2.5 10.5t5.5 10.5q10 1 32 3.5t45 5t43 4.5t26 2q3 0 14.5 -4.5t11.5 -9.5
q0 -10 -4.5 -41t-10 -68t-11 -73t-6.5 -55l237 225q13 -8 27.5 -15t28.5 -15q-4 -2 -8.5 -4t-10.5 -4q13 -13 18 -16.5t11 -3.5q5 0 13 6q4 -5 7.5 -9.5t7.5 -9.5q-1 -1 -2 -1.5t-2 -1.5q-8 6 -21 6q0 -9 2 -11t2 -6q0 -2 -2.5 -2.5t-7.5 -6.5q8 -8 10 -10.5t4 -4.5
q-2 -3 -3 -5.5t-1 -6.5t2 -2.5t2 -2.5q0 -1 -11.5 -8t-29.5 -18.5t-40.5 -27t-45 -32t-42.5 -33.5t-33 -32q32 -27 63 -49.5t59.5 -44.5t54 -45t45.5 -52v1z" />
    <glyph glyph-name="l" unicode="l" horiz-adv-x="489" 
d="M5 807q0 5 2 5q5 0 20 -2.5t35.5 -6.5t43 -9.5t43 -11.5t34.5 -12.5t18 -12.5q6 -11 9 -28t3.5 -33t0 -28t-0.5 -15l-10 -301v-210l258 80q6 -2 6 -3q0 -5 -3.5 -35.5t-9.5 -68.5t-14.5 -74.5t-18.5 -54.5l-232 2l-79 4q-8 1 -15 -1t-13 3l2 4t1 5l-9 240l-71 564v0z" />
    <glyph glyph-name="m" unicode="m" horiz-adv-x="683" 
d="M41 548q6 8 18 19t24.5 20.5t22 16.5l9.5 7q13 0 32 -13t40.5 -33t43.5 -44t40.5 -46t32.5 -39t20 -23q10 8 28 25t40 38t47 43t48 40.5t42.5 30t32.5 11.5q3 0 13 -7.5t21 -18t21.5 -20.5t15.5 -14v-585q0 -17 -24 -17l-130 -4q-6 0 -8 7l8 367q-2 20 -5 42.5t-9 58.5
l-163 -189q-29 30 -64 67.5t-79 70.5l79 -370q-4 -6 -9 -8l-126 -4q-7 0 -12.5 16t-9.5 42t-7.5 59t-7 67t-7 65t-8.5 54l-10 268v0z" />
    <glyph glyph-name="n" unicode="n" horiz-adv-x="593" 
d="M11 654q0 3 16.5 7.5t36.5 8t37 6.5t18 3q6 0 25.5 -23.5t47.5 -62t62.5 -87.5t69 -99t67.5 -96.5t59 -80.5l-7 269q0 3 -3 7t-3 8t2 5.5t2 5.5t-3 14.5t-1 38.5q0 5 8 9.5t11 3.5l115 4q2 -2 4 -3t2 -3l-16 -524v-10t-11 -8l-88 2q-36 44 -69.5 92t-68 98t-72 102
t-81.5 105v-237l8 -240q-2 -4 -5 -6.5t-5 -3.5l-118 -6q-8 0 -10 3.5t-1 8.5t3 11.5t2 11.5q0 4 -1.5 18.5t-3 35t-3.5 44t-4 44t-3 35.5t-1 20q0 4 2 6.5t2 6.5t-2 7.5t-2 7.5q0 1 -1.5 15.5t-3 31.5t-2.5 31.5l-1 14.5q0 4 2 7.5t2 7.5q0 7 -2 18t-4 23.5t-4 24t-2 20.5v6
l-0.5 2t-0.5 11t-0.5 34.5t-0.5 71.5v122z" />
    <glyph glyph-name="o" unicode="o" horiz-adv-x="515" 
d="M481 262q4 -1 2.5 -5t-1.5 -6q-2 -9 -1.5 -17.5t5.5 -16.5q-5 -10 -6 -22t-1 -23.5t-1 -21.5t-6 -15l6 -14q-3 -12 -16 -31t-28.5 -38t-31 -35.5t-24.5 -25.5q-3 4 -7 3t-7.5 -2.5t-6.5 -2t-5 3.5l-35 -7q0 2 -5.5 2t-12 -1t-13.5 -3t-10 -3q-4 3 -10.5 3.5t-9.5 -3.5
q-18 3 -31.5 2.5t-31.5 -2.5l-7 4q-14 -6 -28 -6.5t-28 -1.5l-76 45q-4 56 -11 114.5t-12 118t-7.5 118t2.5 114.5q18 29 30 49.5t25.5 34t33.5 20.5t55 10q45 3 76.5 7.5t55 7t40.5 1t33.5 -10t34 -26t41.5 -47.5q4 5 7.5 4.5t6.5 -4t5 -8.5t2 -9l-8 -14l27 -22
q-4 -8 -5 -18t4 -18q-3 -2 -4 -9t-0.5 -15t2.5 -15.5t4 -9.5l-12 -14l14 -22l-6 -16q2 -5 2 -13t-0.5 -16.5t-0.5 -16t3 -9.5l-11 -26v0z" />
    <glyph glyph-name="p" unicode="p" horiz-adv-x="479" 
d="M34 751q33 23 78 32t93.5 4t94.5 -23t81 -48t53.5 -71.5t11.5 -93.5q-5 -34 -34 -71t-69 -68t-83.5 -50t-77.5 -16l35 -363l-5 -6h-104q-6 0 -10.5 12.5t-8 28t-5.5 30t-3 18.5q-11 74 -19.5 150.5t-12.5 151.5l-15 383v0z" />
    <glyph glyph-name="q" unicode="q" horiz-adv-x="633" 
d="M38 142q2 10 2.5 27t-0.5 35.5t-1.5 35t-0.5 26.5q0 32 5.5 69.5t16.5 75t28.5 72t42 60.5t56 42t71.5 16q111 0 181 -29.5t106.5 -77t44.5 -107.5t-5 -120.5t-43 -116t-67.5 -95t-79.5 -56t-80 0.5q29 -29 56.5 -58.5t53.5 -60.5l-19 -23q-53 31 -108 55t-104.5 53.5
t-90.5 70t-65 105.5z" />
    <glyph glyph-name="r" unicode="r" horiz-adv-x="478" 
d="M313 684q14 -5 28.5 -7.5t29.5 -5.5q6 -7 17 -14t21.5 -13.5t18.5 -12.5t8 -10t8 -15t8 -15t4 -17t4 -15q0 -4 1 -11t1 -11t-2 -8t-2 -8t3 -5.5t3 -5.5t-5 -11t-5 -11t2 -6.5t2 -6.5q0 -5 -3.5 -13t-7.5 -15.5t-7.5 -13.5t-3.5 -7q0 -19 -22.5 -38t-51 -34.5t-55 -27.5
t-33.5 -17q8 -11 19 -24t21 -24.5t17 -19.5l7 -8q0 -2 10.5 -16.5t23.5 -31.5t23.5 -31.5t10.5 -16.5q0 -9 4.5 -15.5t10.5 -12.5t10.5 -11.5t4.5 -10.5v-25q9 -1 12 -1.5t5 -2.5q-3 -2 -7 -3.5t-10 -2.5v-17v-4q-6 5 -14.5 10.5t-25.5 10.5q9 -17 11.5 -20.5t3.5 -4.5
q-2 -3 -9 -10q5 -11 6 -11q-8 5 -14 5l-10 -10q-2 5 -4 10.5t-7 14.5q-14 -12 -23.5 -20.5t-13.5 -15.5q8 -9 12.5 -13.5t9.5 -8.5q-3 -2 -6.5 -4t-5.5 -4l-1 1l-12 15q-5 -3 -9 4.5t-8 12.5l-127 186h-23v-100q0 -2 0.5 -8.5t1.5 -14.5t1.5 -14.5t0.5 -8.5q0 -4 -2 -12.5
t-2 -12.5t-0.5 -14t0.5 -31q0 -2 -6 -11t-9 -9q-4 0 -5.5 2t-5.5 2q-11 0 -20 -4t-16 -4q-4 0 -2.5 2t-2.5 2t-7.5 -2t-7.5 -2t-11 3t-11 3q-3 0 -8 -1.5t-10 -3.5q-6 3 -11 4.5t-5 9.5l6 181v372l-10 170q4 8 6 8h234q4 0 20 -1.5t25 -3.5l4 4v0z" />
    <glyph glyph-name="s" unicode="s" horiz-adv-x="552" 
d="M254 650q20 0 24 1t8 1q11 0 20 -3t14 -3q7 0 11 4q9 -3 20.5 -3t22 -1t17.5 -4t7 -13q0 -3 -1.5 -23t-4.5 -42.5t-8 -41t-13 -18.5l-124 2q-9 -1 -28.5 -8t-39 -18t-34.5 -25t-15 -29q0 -9 11.5 -22.5t26 -25.5t28 -21t17.5 -10q25 -8 51 -10.5t52 -6t50.5 -10.5
t47.5 -23q55 -39 91.5 -85t36.5 -90q0 -27 -16.5 -49.5t-42.5 -40.5t-57 -31.5t-59.5 -22.5t-51 -13.5t-30.5 -4.5h-103q-2 0 -26 5t-52.5 12.5t-52 15t-23.5 13.5q0 2 1.5 8.5t3.5 14.5t3.5 14.5t1.5 8.5q2 20 6 36q2 14 5.5 25t7.5 11q7 0 33 -5.5t58.5 -12.5t64.5 -12.5
t53 -5.5q6 0 21 1t30.5 5t28 11.5t12.5 20.5q0 20 -25 40t-62.5 42t-81.5 46t-81.5 53.5t-62.5 65t-25 78.5q0 36 24.5 70.5t60.5 62.5t76.5 45.5t72.5 20.5z" />
    <glyph glyph-name="t" unicode="t" horiz-adv-x="667" 
d="M20 575v6.5t5 6.5l15 -3l604 -14q3 -1 6.5 -1.5t3.5 -2.5t-1 -13t-2 -24t-2 -24t-1 -13t0.5 -7t0.5 -10t-2 -9.5t-7 -5.5l-45 -7.5t-56 -9.5t-58 -10.5t-51.5 -10t-37 -9t-14.5 -7.5v-257l10 -170q0 -2 -0.5 -4t-4.5 -5h-81q-14 54 -24 110t-19 112t-18.5 113.5
t-22.5 114.5q-27 6 -55 6t-53.5 1.5t-47 8.5t-34.5 29l-8 109v0z" />
    <glyph glyph-name="u" unicode="u" horiz-adv-x="530" 
d="M327 684q0 4 2 4l184 -2q2 -2 4 -3t4 -3v-184l-18 -366q-33 -81 -80 -117.5t-107 -36.5l-106 6q-20 1 -51.5 18t-60.5 39t-50 45t-21 38v282l10 272q2 4 8 8l83 -2q4 0 14 2.5t20 3.5t17.5 -1.5t7.5 -12.5v-411q0 -12 5 -33t15.5 -41t28 -34.5t42.5 -14.5q9 0 14.5 1.5
t10.5 6t9.5 12.5t12.5 21l6 181v311q0 4 -2 5.5t-2 5.5z" />
    <glyph glyph-name="v" unicode="v" horiz-adv-x="608" 
d="M24 619q0 3 2 3l71 -4q7 -1 15.5 1t16.5 3.5t14.5 0.5t9.5 -7q30 -54 48.5 -113.5t33.5 -122.5t29 -128.5t34 -132.5q15 33 33 77.5t37 92.5t38 94.5t35.5 83.5t29.5 60t21 23h16.5t36 -2t35.5 -6t16 -11q0 -5 -10 -38.5t-26 -84t-37 -112t-43 -123t-44 -116t-40 -91.5
l-190 8q-8 2 -8 4q0 4 2 4t2 4q0 5 -5.5 24.5t-14.5 48t-20 62t-21.5 65t-19.5 59t-13 43.5q-8 27 -17 62.5t-18.5 72t-18 71.5t-15.5 62.5t-11 44.5t-4 18z" />
    <glyph glyph-name="w" unicode="w" horiz-adv-x="740" 
d="M751 561l-114 -267l-24 -95l-48 -144l-124 -26l-39 196l-7 10l-5 -7l-81 -212l-58 -16h-19l-236 557l120 19l72 -151l37 -116l13 -44l21 -67l17 -48l6 8l52 280l103 19l23 -82l15 -85l25 -89l7 7l103 354z" />
    <glyph glyph-name="x" unicode="x" horiz-adv-x="516" 
d="M43 -27q-4 2 -7 5l129 371l-14 45.5t-22.5 73.5t-25.5 87t-24.5 86.5t-18.5 70.5t-7 41q0 7 16.5 11.5t36.5 6.5t37.5 3t19.5 1q10 0 20.5 -17.5t21 -46t20.5 -63t19.5 -68.5t17.5 -63.5t14 -46.5q10 16 25.5 41.5t33 53.5t35 56.5t33.5 51.5t28.5 37.5t19.5 14.5
q4 0 18 1t18 1t3 -2t3 -2t4 2t4 2q5 0 11.5 -6t6.5 -11l-3 -5.5t-7.5 -12t-9.5 -14t-9 -12.5l-168 -328q11 -23 27 -54.5t33 -65.5t34 -67.5t30.5 -60.5l22 -44t8.5 -19q0 -4 1 -6.5t1 -6.5q0 -3 -4 -4t-9.5 -2t-10 -1h-4.5q-4 0 -8 2t-8 2t-6.5 -2t-4.5 -2q-22 -2 -39 -4
t-21 -2q-9 0 -25 27t-35 64.5t-39 78.5t-36 70q-20 -77 -36 -138t-36 -119q-5 -11 -12 -9t-13 2z" />
    <glyph glyph-name="y" unicode="y" horiz-adv-x="497" 
d="M157 739q27 -86 52 -167t70 -156q25 37 42.5 75t31.5 76.5t26.5 78t29.5 80.5q17 0 31 0.5t38 2.5q9 2 15.5 -4t6.5 -17q0 -7 -10 -33.5t-25.5 -64t-34 -82t-35 -88.5t-28.5 -83.5t-15 -65.5l-9 -215q-3 -38 -5.5 -58t-6.5 -42h-155q9 12 15.5 16.5t10 12.5t4.5 24.5
t-0.5 54t-5 101.5t-8.5 165q-1 16 -7.5 31t-15.5 29.5t-18 28.5t-16 28q-29 60 -60 120t-65 123q0 14 15 29h132z" />
    <glyph glyph-name="z" unicode="z" horiz-adv-x="546" 
d="M431 583l8 -4l50 -78l10 -31l-282 -329l12 -15l6 3l167 -22l3 4l52 -12l30 5l20 -9l-70 -144l-98 20l-175 31l-75 8l-58 101l236 292l-186 -45l-58 116z" />
    <glyph glyph-name="asciitilde" unicode="~" 
d="M655 463q7 -7 17 -14.5t10 -10.5q0 -7 3.5 -14t8.5 -15q3 -5 4 -11t3 -13l-8 -7q6 -5 7.5 -6t1.5 -2q0 -4 -3 -10.5t-3 -10.5t-2 -4t-7 -6q-2 -4 -3.5 -9.5t-3.5 -9.5q-61 -77 -138 -146t-155 -141q-33 25 -69.5 56t-72.5 64.5t-69 68.5t-58 68q-5 6 -10.5 14.5
t-10.5 16.5t-8 13.5t-3 7.5q0 4 -1 9t-1 9q0 2 1 7.5t2 12.5t2 12.5t1 7.5q0 9 7.5 20t17.5 21.5t20 18.5t15 13q1 1 8.5 5t17 8t20 7t16.5 3q4 0 9 1t9 1q16 0 36.5 -5.5t36.5 -19.5q2 -2 5 -2t4 -1q21 -20 40 -43t46 -52q12 24 30 43.5t38 34.5t40 23.5t36 10.5
q5 0 9.5 2.5t8.5 2.5t16 1t16 1q12 0 25.5 -7t33.5 -24h4zM655 463q7 -7 17 -14.5t10 -10.5q0 -7 3.5 -14t8.5 -15q3 -5 4 -11t3 -13l-8 -7q6 -5 7.5 -6t1.5 -2q0 -4 -3 -10.5t-3 -10.5t-2 -4t-7 -6q-2 -4 -3.5 -9.5t-3.5 -9.5q-61 -77 -138 -146t-155 -141q-33 25 -69.5 56
t-72.5 64.5t-69 68.5t-58 68q-5 6 -10.5 14.5t-10.5 16.5t-8 13.5t-3 7.5q0 4 -1 9t-1 9q0 2 1 7.5t2 12.5t2 12.5t1 7.5q0 9 7.5 20t17.5 21.5t20 18.5t15 13q1 1 8.5 5t17 8t20 7t16.5 3q4 0 9 1t9 1q16 0 36.5 -5.5t36.5 -19.5q2 -2 5 -2t4 -1q21 -20 40 -43t46 -52
q12 24 30 43.5t38 34.5t40 23.5t36 10.5q5 0 9.5 2.5t8.5 2.5t16 1t16 1q12 0 25.5 -7t33.5 -24h4z" />
    <glyph glyph-name="copyright" unicode="&#xa9;" 
d="M655 463q7 -7 17 -14.5t10 -10.5q0 -7 3.5 -14t8.5 -15q3 -5 4 -11t3 -13l-8 -7q6 -5 7.5 -6t1.5 -2q0 -4 -3 -10.5t-3 -10.5t-2 -4t-7 -6q-2 -4 -3.5 -9.5t-3.5 -9.5q-61 -77 -138 -146t-155 -141q-33 25 -69.5 56t-72.5 64.5t-69 68.5t-58 68q-5 6 -10.5 14.5
t-10.5 16.5t-8 13.5t-3 7.5q0 4 -1 9t-1 9q0 2 1 7.5t2 12.5t2 12.5t1 7.5q0 9 7.5 20t17.5 21.5t20 18.5t15 13q1 1 8.5 5t17 8t20 7t16.5 3q4 0 9 1t9 1q16 0 36.5 -5.5t36.5 -19.5q2 -2 5 -2t4 -1q21 -20 40 -43t46 -52q12 24 30 43.5t38 34.5t40 23.5t36 10.5
q5 0 9.5 2.5t8.5 2.5t16 1t16 1q12 0 25.5 -7t33.5 -24h4zM655 463q7 -7 17 -14.5t10 -10.5q0 -7 3.5 -14t8.5 -15q3 -5 4 -11t3 -13l-8 -7q6 -5 7.5 -6t1.5 -2q0 -4 -3 -10.5t-3 -10.5t-2 -4t-7 -6q-2 -4 -3.5 -9.5t-3.5 -9.5q-61 -77 -138 -146t-155 -141q-33 25 -69.5 56
t-72.5 64.5t-69 68.5t-58 68q-5 6 -10.5 14.5t-10.5 16.5t-8 13.5t-3 7.5q0 4 -1 9t-1 9q0 2 1 7.5t2 12.5t2 12.5t1 7.5q0 9 7.5 20t17.5 21.5t20 18.5t15 13q1 1 8.5 5t17 8t20 7t16.5 3q4 0 9 1t9 1q16 0 36.5 -5.5t36.5 -19.5q2 -2 5 -2t4 -1q21 -20 40 -43t46 -52
q12 24 30 43.5t38 34.5t40 23.5t36 10.5q5 0 9.5 2.5t8.5 2.5t16 1t16 1q12 0 25.5 -7t33.5 -24h4z" />
    <glyph glyph-name="registered" unicode="&#xae;" 
d="M655 463q7 -7 17 -14.5t10 -10.5q0 -7 3.5 -14t8.5 -15q3 -5 4 -11t3 -13l-8 -7q6 -5 7.5 -6t1.5 -2q0 -4 -3 -10.5t-3 -10.5t-2 -4t-7 -6q-2 -4 -3.5 -9.5t-3.5 -9.5q-61 -77 -138 -146t-155 -141q-33 25 -69.5 56t-72.5 64.5t-69 68.5t-58 68q-5 6 -10.5 14.5
t-10.5 16.5t-8 13.5t-3 7.5q0 4 -1 9t-1 9q0 2 1 7.5t2 12.5t2 12.5t1 7.5q0 9 7.5 20t17.5 21.5t20 18.5t15 13q1 1 8.5 5t17 8t20 7t16.5 3q4 0 9 1t9 1q16 0 36.5 -5.5t36.5 -19.5q2 -2 5 -2t4 -1q21 -20 40 -43t46 -52q12 24 30 43.5t38 34.5t40 23.5t36 10.5
q5 0 9.5 2.5t8.5 2.5t16 1t16 1q12 0 25.5 -7t33.5 -24h4zM655 463q7 -7 17 -14.5t10 -10.5q0 -7 3.5 -14t8.5 -15q3 -5 4 -11t3 -13l-8 -7q6 -5 7.5 -6t1.5 -2q0 -4 -3 -10.5t-3 -10.5t-2 -4t-7 -6q-2 -4 -3.5 -9.5t-3.5 -9.5q-61 -77 -138 -146t-155 -141q-33 25 -69.5 56
t-72.5 64.5t-69 68.5t-58 68q-5 6 -10.5 14.5t-10.5 16.5t-8 13.5t-3 7.5q0 4 -1 9t-1 9q0 2 1 7.5t2 12.5t2 12.5t1 7.5q0 9 7.5 20t17.5 21.5t20 18.5t15 13q1 1 8.5 5t17 8t20 7t16.5 3q4 0 9 1t9 1q16 0 36.5 -5.5t36.5 -19.5q2 -2 5 -2t4 -1q21 -20 40 -43t46 -52
q12 24 30 43.5t38 34.5t40 23.5t36 10.5q5 0 9.5 2.5t8.5 2.5t16 1t16 1q12 0 25.5 -7t33.5 -24h4z" />
    <glyph glyph-name="hungarumlaut" unicode="&#x2dd;" horiz-adv-x="426" 
d="M249 674q5 -14 3 -32.5t-6 -31.5q-11 -6 -24 -12t-27 -13q-5 -2 -9 -4.5t-9 -3.5q-9 -2 -19 -1.5t-21 0.5q-1 2 1.5 5t4.5 6t8 11q4 5 8 10.5t6 11.5q5 12 3 27t-1 30q20 -2 42.5 1t39.5 -4z" />
    <glyph glyph-name="quoteleft" unicode="&#x2018;" horiz-adv-x="247" 
d="M98 137q-15 11 -32 21.5t-34 20.5q4 6 14.5 19.5t24 31t28.5 36.5t28 35q-7 19 -15.5 43t-17 46.5t-15 40t-9.5 23.5q18 6 34.5 14t33.5 15l71 -178q2 -2 4 -2.5t4 -2.5z" />
    <glyph glyph-name="quoteright" unicode="&#x2019;" horiz-adv-x="236" 
d="M32 300q2 2 4 2.5t4 2.5l71 178q17 -7 33.5 -15t34.5 -14q-3 -6 -9.5 -23.5t-15 -40t-17 -46.5t-15.5 -43q13 -16 28 -35t28.5 -36.5t24 -31t14.5 -19.5q-17 -10 -34 -20.5t-32 -21.5l-119 163v0z" />
    <glyph glyph-name="quotedblleft" unicode="&#x201c;" horiz-adv-x="367" 
d="M98 137q-15 11 -32 21.5t-34 20.5q4 6 14.5 19.5t24 31t28.5 36.5t28 35q-7 19 -15.5 43t-17 46.5t-15 40t-9.5 23.5q18 6 34.5 14t33.5 15l71 -178q2 -2 4 -2.5t4 -2.5zM230 131q-16 9 -33.5 18.5t-35.5 17.5q3 6 12.5 20.5t21.5 33t25.5 39t25.5 37.5q-9 19 -19.5 42
t-20.5 44.5t-18 38t-12 22.5q18 8 33.5 17.5t32.5 17.5l85 -172q2 -1 4 -1.5t5 -2.5z" />
    <glyph glyph-name="quotedblright" unicode="&#x201d;" horiz-adv-x="394" 
d="M131 478q17 -8 35 -15.5t37 -14.5q-3 -6 -10.5 -21.5t-18 -35t-22 -41t-21.5 -39.5q10 -18 22.5 -40t24.5 -42.5t21.5 -36.5t13.5 -22q-17 -9 -31 -19.5t-31 -20.5l-100 163q-2 2 -4.5 2t-4.5 2zM264 481q16 -9 34 -16.5t37 -15.5q-3 -6 -11 -21.5t-19 -35t-23 -40
t-22 -38.5q10 -18 22 -40.5t23.5 -43.5t20.5 -37t13 -22q-17 -9 -31.5 -19t-31.5 -20l-96 165q-2 2 -4.5 2t-4.5 2z" />
    <glyph glyph-name="bullet" unicode="&#x2022;" 
d="M655 463q7 -7 17 -14.5t10 -10.5q0 -7 3.5 -14t8.5 -15q3 -5 4 -11t3 -13l-8 -7q6 -5 7.5 -6t1.5 -2q0 -4 -3 -10.5t-3 -10.5t-2 -4t-7 -6q-2 -4 -3.5 -9.5t-3.5 -9.5q-61 -77 -138 -146t-155 -141q-33 25 -69.5 56t-72.5 64.5t-69 68.5t-58 68q-5 6 -10.5 14.5
t-10.5 16.5t-8 13.5t-3 7.5q0 4 -1 9t-1 9q0 2 1 7.5t2 12.5t2 12.5t1 7.5q0 9 7.5 20t17.5 21.5t20 18.5t15 13q1 1 8.5 5t17 8t20 7t16.5 3q4 0 9 1t9 1q16 0 36.5 -5.5t36.5 -19.5q2 -2 5 -2t4 -1q21 -20 40 -43t46 -52q12 24 30 43.5t38 34.5t40 23.5t36 10.5
q5 0 9.5 2.5t8.5 2.5t16 1t16 1q12 0 25.5 -7t33.5 -24h4zM655 463q7 -7 17 -14.5t10 -10.5q0 -7 3.5 -14t8.5 -15q3 -5 4 -11t3 -13l-8 -7q6 -5 7.5 -6t1.5 -2q0 -4 -3 -10.5t-3 -10.5t-2 -4t-7 -6q-2 -4 -3.5 -9.5t-3.5 -9.5q-61 -77 -138 -146t-155 -141q-33 25 -69.5 56
t-72.5 64.5t-69 68.5t-58 68q-5 6 -10.5 14.5t-10.5 16.5t-8 13.5t-3 7.5q0 4 -1 9t-1 9q0 2 1 7.5t2 12.5t2 12.5t1 7.5q0 9 7.5 20t17.5 21.5t20 18.5t15 13q1 1 8.5 5t17 8t20 7t16.5 3q4 0 9 1t9 1q16 0 36.5 -5.5t36.5 -19.5q2 -2 5 -2t4 -1q21 -20 40 -43t46 -52
q12 24 30 43.5t38 34.5t40 23.5t36 10.5q5 0 9.5 2.5t8.5 2.5t16 1t16 1q12 0 25.5 -7t33.5 -24h4z" />
    <glyph glyph-name="fraction" unicode="&#x2044;" 
d="M655 463q7 -7 17 -14.5t10 -10.5q0 -7 3.5 -14t8.5 -15q3 -5 4 -11t3 -13l-8 -7q6 -5 7.5 -6t1.5 -2q0 -4 -3 -10.5t-3 -10.5t-2 -4t-7 -6q-2 -4 -3.5 -9.5t-3.5 -9.5q-61 -77 -138 -146t-155 -141q-33 25 -69.5 56t-72.5 64.5t-69 68.5t-58 68q-5 6 -10.5 14.5
t-10.5 16.5t-8 13.5t-3 7.5q0 4 -1 9t-1 9q0 2 1 7.5t2 12.5t2 12.5t1 7.5q0 9 7.5 20t17.5 21.5t20 18.5t15 13q1 1 8.5 5t17 8t20 7t16.5 3q4 0 9 1t9 1q16 0 36.5 -5.5t36.5 -19.5q2 -2 5 -2t4 -1q21 -20 40 -43t46 -52q12 24 30 43.5t38 34.5t40 23.5t36 10.5
q5 0 9.5 2.5t8.5 2.5t16 1t16 1q12 0 25.5 -7t33.5 -24h4zM655 463q7 -7 17 -14.5t10 -10.5q0 -7 3.5 -14t8.5 -15q3 -5 4 -11t3 -13l-8 -7q6 -5 7.5 -6t1.5 -2q0 -4 -3 -10.5t-3 -10.5t-2 -4t-7 -6q-2 -4 -3.5 -9.5t-3.5 -9.5q-61 -77 -138 -146t-155 -141q-33 25 -69.5 56
t-72.5 64.5t-69 68.5t-58 68q-5 6 -10.5 14.5t-10.5 16.5t-8 13.5t-3 7.5q0 4 -1 9t-1 9q0 2 1 7.5t2 12.5t2 12.5t1 7.5q0 9 7.5 20t17.5 21.5t20 18.5t15 13q1 1 8.5 5t17 8t20 7t16.5 3q4 0 9 1t9 1q16 0 36.5 -5.5t36.5 -19.5q2 -2 5 -2t4 -1q21 -20 40 -43t46 -52
q12 24 30 43.5t38 34.5t40 23.5t36 10.5q5 0 9.5 2.5t8.5 2.5t16 1t16 1q12 0 25.5 -7t33.5 -24h4z" />
    <glyph glyph-name="Euro" unicode="&#x20ac;" horiz-adv-x="274" 
d="M261 43v-30t1 -31q-29 2 -57.5 4t-55.5 4q-20 2 -34.5 10.5t-25.5 19.5q-7 8 -14.5 15.5t-9.5 20.5q-2 14 -2 31t-4 32q-8 0 -14 1t-11 5q-5 5 -7 11.5t-3 17.5q8 1 16.5 1.5t17.5 1.5q2 15 3.5 32t1.5 33q-8 0 -17.5 0.5t-17.5 0.5q-4 5 -4.5 13t1.5 16q16 4 38 6
q1 6 0 12t-1 11q0 11 3 22t7 22q3 10 8 18t13 13t19.5 8.5t22.5 6.5q8 2 18 5t20.5 4.5t20.5 0.5t18 -7q0 -11 0.5 -24t-4.5 -21q-6 -3 -13.5 -3.5t-15.5 -1.5q-23 -3 -44.5 -7.5t-36.5 -14.5q0 -11 -0.5 -21.5t0.5 -19.5q14 -2 28 -2h29t29.5 0.5t28.5 -3.5
q-2 -5 -1.5 -10.5t0.5 -11.5q-29 -4 -58 -7t-60 -5q-1 -14 -0.5 -30.5t2.5 -30.5q27 0 51.5 1.5t50.5 3.5q1 -11 1.5 -21t2.5 -20q-26 -2 -52.5 -3t-55.5 -1q0 -8 1 -15t2 -15l2 -14t4 -12t13 -9.5t17 -6.5q9 -2 19 -4t19 -3q11 -1 22.5 0t22.5 1q12 0 23 0.5t22 -0.5z" />
    <glyph glyph-name="trademark" unicode="&#x2122;" 
d="M655 463q7 -7 17 -14.5t10 -10.5q0 -7 3.5 -14t8.5 -15q3 -5 4 -11t3 -13l-8 -7q6 -5 7.5 -6t1.5 -2q0 -4 -3 -10.5t-3 -10.5t-2 -4t-7 -6q-2 -4 -3.5 -9.5t-3.5 -9.5q-61 -77 -138 -146t-155 -141q-33 25 -69.5 56t-72.5 64.5t-69 68.5t-58 68q-5 6 -10.5 14.5
t-10.5 16.5t-8 13.5t-3 7.5q0 4 -1 9t-1 9q0 2 1 7.5t2 12.5t2 12.5t1 7.5q0 9 7.5 20t17.5 21.5t20 18.5t15 13q1 1 8.5 5t17 8t20 7t16.5 3q4 0 9 1t9 1q16 0 36.5 -5.5t36.5 -19.5q2 -2 5 -2t4 -1q21 -20 40 -43t46 -52q12 24 30 43.5t38 34.5t40 23.5t36 10.5
q5 0 9.5 2.5t8.5 2.5t16 1t16 1q12 0 25.5 -7t33.5 -24h4zM655 463q7 -7 17 -14.5t10 -10.5q0 -7 3.5 -14t8.5 -15q3 -5 4 -11t3 -13l-8 -7q6 -5 7.5 -6t1.5 -2q0 -4 -3 -10.5t-3 -10.5t-2 -4t-7 -6q-2 -4 -3.5 -9.5t-3.5 -9.5q-61 -77 -138 -146t-155 -141q-33 25 -69.5 56
t-72.5 64.5t-69 68.5t-58 68q-5 6 -10.5 14.5t-10.5 16.5t-8 13.5t-3 7.5q0 4 -1 9t-1 9q0 2 1 7.5t2 12.5t2 12.5t1 7.5q0 9 7.5 20t17.5 21.5t20 18.5t15 13q1 1 8.5 5t17 8t20 7t16.5 3q4 0 9 1t9 1q16 0 36.5 -5.5t36.5 -19.5q2 -2 5 -2t4 -1q21 -20 40 -43t46 -52
q12 24 30 43.5t38 34.5t40 23.5t36 10.5q5 0 9.5 2.5t8.5 2.5t16 1t16 1q12 0 25.5 -7t33.5 -24h4z" />
    </font>
</defs>
</svg>
